<svg xmlns="http://www.w3.org/2000/svg" height="331px" width="501px" version="1.1"><polyline points="165.0,28.0,150.0,36.0,139.0,44.0,129.0,52.0,124.0,60.0,118.0,68.0,113.0,76.0,111.0,84.0,108.0,92.0,104.0,100.0,104.0,108.0,101.0,116.0,99.0,124.0" stroke="black" stroke-width="2" fill="none" />
<polyline points="110.0,86.0,118.0,71.0,126.0,59.0,134.0,48.0,142.0,43.0,150.0,37.0,158.0,32.0,166.0,28.0,174.0,25.0,182.0,24.0,190.0,23.0,198.0,22.0,206.0,22.0,214.0,22.0,222.0,22.0,230.0,22.0,238.0,22.0,246.0,22.0,254.0,22.0,262.0,22.0,270.0,22.0,278.0,22.0,286.0,22.0,294.0,22.0,302.0,21.0,310.0,22.0,318.0,21.0,326.0,24.0,334.0,24.0,342.0,26.0,350.0,29.0,358.0,33.0,366.0,38.0,374.0,44.0,382.0,51.0,390.0,61.0,398.0,75.0" stroke="black" stroke-width="2" fill="none" />
<polyline points="413.0,120.0,421.0,129.0,429.0,132.0,437.0,133.0,445.0,135.0,453.0,136.0,461.0,139.0,469.0,142.0,477.0,147.0,485.0,154.0,493.0,167.0" stroke="black" stroke-width="2" fill="none" />
<polyline points="484.0,167.0,476.0,157.0,468.0,151.0,460.0,147.0,452.0,145.0,444.0,143.0,436.0,143.0,428.0,141.0,420.0,138.0,412.0,134.0,404.0,123.0" stroke="black" stroke-width="2" fill="none" />
<polyline points="367.0,86.0,359.0,78.0,351.0,70.0,343.0,64.0,335.0,60.0,327.0,58.0,319.0,56.0,311.0,56.0,303.0,56.0,295.0,56.0,287.0,56.0,279.0,57.0,271.0,59.0" stroke="black" stroke-width="2" fill="none" />
<polyline points="273.0,56.0,270.0,64.0,270.0,72.0,270.0,80.0,270.0,88.0,270.0,96.0,270.0,104.0,270.0,112.0,270.0,120.0,270.0,128.0,274.0,134.0,282.0,133.0,290.0,134.0,298.0,134.0,306.0,134.0,314.0,134.0,322.0,134.0,330.0,134.0,338.0,134.0,346.0,134.0,354.0,134.0,362.0,134.0,370.0,134.0,378.0,133.0" stroke="black" stroke-width="2" fill="none" />
<polyline points="376.0,90.0,368.0,76.0,360.0,66.0,352.0,60.0,344.0,55.0,336.0,52.0,328.0,50.0,320.0,49.0,312.0,46.0,304.0,46.0,296.0,46.0,288.0,46.0,280.0,46.0,272.0,47.0,264.0,52.0" stroke="black" stroke-width="2" fill="none" />
<polyline points="266.0,47.0,263.0,55.0,264.0,63.0,264.0,71.0,264.0,79.0,264.0,87.0,264.0,95.0,264.0,103.0,264.0,111.0,264.0,119.0,264.0,127.0,264.0,135.0,267.0,140.0,275.0,140.0,283.0,141.0,291.0,140.0,299.0,140.0,307.0,140.0,315.0,140.0,323.0,140.0,331.0,140.0,339.0,140.0,347.0,140.0,355.0,140.0,363.0,140.0,371.0,140.0,379.0,140.0,387.0,139.0" stroke="black" stroke-width="2" fill="none" />
<polyline points="390.0,76.0,382.0,64.0,374.0,54.0,366.0,47.0,358.0,42.0,350.0,38.0,342.0,35.0,334.0,32.0,326.0,30.0,318.0,30.0,310.0,29.0,302.0,29.0,294.0,28.0,286.0,28.0,278.0,28.0,270.0,28.0,262.0,28.0,254.0,28.0,246.0,28.0,238.0,28.0,230.0,28.0,222.0,28.0,214.0,28.0,206.0,28.0,198.0,31.0,190.0,30.0,182.0,31.0,174.0,35.0,166.0,37.0,158.0,41.0,150.0,46.0,142.0,52.0,134.0,60.0,126.0,73.0,118.0,87.0" stroke="black" stroke-width="2" fill="none" />
<polyline points="132.0,101.0,140.0,85.0,148.0,72.0,156.0,65.0,164.0,59.0,172.0,54.0,180.0,51.0,188.0,49.0,196.0,47.0,204.0,47.0,212.0,46.0,220.0,46.0,228.0,46.0,236.0,46.0,244.0,46.0,247.0,49.0,248.0,57.0,248.0,65.0,248.0,73.0,248.0,81.0,248.0,89.0,248.0,97.0,248.0,105.0,248.0,113.0,248.0,121.0,248.0,129.0,248.0,137.0" stroke="black" stroke-width="2" fill="none" />
<polyline points="241.0,57.0,233.0,56.0,225.0,56.0,217.0,56.0,209.0,56.0,201.0,56.0,193.0,56.0,185.0,59.0,177.0,60.0,169.0,65.0,161.0,71.0,153.0,79.0,145.0,91.0,137.0,113.0" stroke="black" stroke-width="2" fill="none" />
<polyline points="106.0,130.0,98.0,136.0,90.0,140.0,82.0,140.0,74.0,143.0,66.0,145.0,58.0,145.0,50.0,149.0,42.0,153.0,34.0,160.0,26.0,175.0" stroke="black" stroke-width="2" fill="none" />
<polyline points="19.0,169.0,27.0,155.0,35.0,148.0,43.0,143.0,51.0,140.0,59.0,138.0,67.0,135.0,75.0,134.0,83.0,133.0,91.0,131.0,99.0,125.0" stroke="black" stroke-width="2" fill="none" />
<polyline points="57.0,145.0,39.0,153.0,32.0,161.0,29.0,169.0,25.0,177.0,23.0,185.0,23.0,193.0,23.0,201.0,21.0,209.0,21.0,217.0,21.0,225.0,21.0,233.0,21.0,241.0,22.0,249.0,23.0,257.0,26.0,265.0,32.0,273.0" stroke="black" stroke-width="2" fill="none" />
<polyline points="25.0,261.0,33.0,272.0,41.0,277.0,49.0,279.0,57.0,279.0,65.0,279.0,79.0,280.0" stroke="black" stroke-width="2" fill="none" />
<polyline points="71.0,288.0,76.0,296.0,79.0,304.0,85.0,312.0,93.0,320.0,109.0,328.0" stroke="black" stroke-width="2" fill="none" />
<polyline points="88.0,301.0,96.0,309.0,104.0,315.0,112.0,319.0,120.0,322.0,128.0,323.0,136.0,323.0,144.0,321.0,152.0,319.0,160.0,315.0,168.0,308.0,176.0,298.0" stroke="black" stroke-width="2" fill="none" />
<polyline points="163.0,289.0,155.0,298.0,147.0,302.0,139.0,305.0,131.0,307.0,123.0,305.0,115.0,303.0,107.0,297.0,99.0,286.0" stroke="black" stroke-width="2" fill="none" />
<polyline points="105.0,280.0,113.0,293.0,121.0,296.0,129.0,297.0,137.0,299.0,145.0,295.0,153.0,288.0" stroke="black" stroke-width="2" fill="none" />
<polyline points="152.0,252.0,144.0,247.0,136.0,243.0,128.0,243.0,120.0,245.0,112.0,251.0,104.0,263.0" stroke="black" stroke-width="2" fill="none" />
<polyline points="100.0,250.0,108.0,244.0,116.0,239.0,124.0,236.0,132.0,235.0,140.0,236.0,148.0,240.0,156.0,244.0,164.0,256.0" stroke="black" stroke-width="2" fill="none" />
<polyline points="176.0,243.0,168.0,234.0,160.0,227.0,152.0,223.0,144.0,220.0,136.0,219.0,128.0,218.0,120.0,221.0,112.0,222.0,104.0,227.0,96.0,233.0,88.0,240.0,80.0,256.0" stroke="black" stroke-width="2" fill="none" />
<polyline points="73.0,251.0,81.0,237.0,89.0,228.0,97.0,221.0,105.0,216.0,113.0,214.0,121.0,212.0,129.0,211.0,137.0,211.0,145.0,212.0,153.0,215.0,161.0,220.0,169.0,225.0,177.0,233.0,185.0,245.0" stroke="black" stroke-width="2" fill="none" />
<polyline points="151.0,223.0,165.0,231.0,171.0,239.0,177.0,247.0,179.0,255.0,181.0,263.0,183.0,271.0,183.0,279.0,179.0,287.0,177.0,295.0,171.0,303.0,163.0,311.0,151.0,319.0" stroke="black" stroke-width="2" fill="none" />
<polyline points="150.0,328.0,164.0,320.0,174.0,312.0,180.0,304.0,184.0,296.0,190.0,288.0" stroke="black" stroke-width="2" fill="none" />
<polyline points="148.0,292.0,156.0,284.0,158.0,276.0,158.0,268.0,156.0,260.0,151.0,252.0,139.0,244.0" stroke="black" stroke-width="2" fill="none" />
<polyline points="142.0,237.0,155.0,245.0,160.0,253.0,164.0,261.0,164.0,269.0,164.0,277.0,164.0,285.0,159.0,293.0,148.0,301.0" stroke="black" stroke-width="2" fill="none" />
<polyline points="110.0,292.0,106.0,284.0,103.0,276.0,103.0,268.0,104.0,260.0,110.0,252.0,120.0,244.0" stroke="black" stroke-width="2" fill="none" />
<polyline points="118.0,237.0,105.0,245.0,99.0,253.0,96.0,261.0,94.0,269.0,94.0,277.0,97.0,285.0,101.0,293.0,110.0,301.0" stroke="black" stroke-width="2" fill="none" />
<polyline points="103.0,316.0,92.0,308.0,86.0,300.0,83.0,292.0,79.0,284.0,77.0,276.0,77.0,268.0,78.0,260.0,82.0,252.0,85.0,244.0,90.0,236.0,99.0,228.0,115.0,220.0" stroke="black" stroke-width="2" fill="none" />
<polyline points="98.0,219.0,89.0,227.0,82.0,235.0,76.0,243.0,72.0,251.0,71.0,259.0,70.0,267.0,70.0,275.0" stroke="black" stroke-width="2" fill="none" />
<polyline points="15.0,256.0,23.0,272.0,31.0,281.0,39.0,286.0,47.0,286.0,55.0,289.0,63.0,289.0,71.0,287.0,79.0,300.0,87.0,312.0,95.0,321.0,103.0,324.0,111.0,328.0,119.0,331.0,127.0,330.0,135.0,331.0,143.0,330.0,151.0,328.0,159.0,324.0,167.0,318.0,175.0,310.0,183.0,301.0,191.0,288.0,199.0,288.0,207.0,288.0,215.0,288.0,223.0,288.0,231.0,288.0,239.0,288.0,247.0,288.0,255.0,288.0,263.0,288.0,271.0,288.0,279.0,288.0,287.0,288.0,295.0,288.0,303.0,288.0,311.0,288.0,319.0,288.0,327.0,294.0,335.0,307.0,343.0,315.0,351.0,321.0,359.0,326.0,367.0,328.0,375.0,331.0,383.0,331.0,391.0,330.0,399.0,329.0,407.0,326.0,415.0,322.0,423.0,315.0,431.0,308.0,439.0,293.0,447.0,289.0,455.0,288.0,463.0,288.0,471.0,286.0,479.0,283.0,487.0,278.0,495.0,265.0" stroke="black" stroke-width="2" fill="none" />
<polyline points="484.0,268.0,476.0,275.0,468.0,280.0,460.0,280.0,452.0,280.0,444.0,279.0" stroke="black" stroke-width="2" fill="none" />
<polyline points="405.0,255.0,397.0,247.0,389.0,244.0,381.0,244.0,373.0,244.0,365.0,249.0,357.0,258.0" stroke="black" stroke-width="2" fill="none" />
<polyline points="349.0,258.0,357.0,245.0,365.0,240.0,373.0,236.0,381.0,235.0,389.0,236.0,397.0,237.0,405.0,242.0,413.0,249.0" stroke="black" stroke-width="2" fill="none" />
<polyline points="428.0,243.0,420.0,234.0,412.0,228.0,404.0,223.0,396.0,221.0,388.0,219.0,380.0,218.0,372.0,221.0,364.0,222.0,356.0,226.0,348.0,231.0,340.0,241.0,332.0,258.0" stroke="black" stroke-width="2" fill="none" />
<polyline points="325.0,253.0,333.0,237.0,341.0,228.0,349.0,221.0,357.0,217.0,365.0,213.0,373.0,211.0,381.0,211.0,389.0,211.0,397.0,213.0,405.0,216.0,413.0,219.0,421.0,223.0,429.0,232.0,437.0,243.0" stroke="black" stroke-width="2" fill="none" />
<polyline points="408.0,217.0,421.0,225.0,429.0,233.0,434.0,241.0,439.0,249.0,441.0,257.0,442.0,265.0,441.0,273.0,441.0,287.0,437.0,295.0,433.0,303.0,427.0,311.0,419.0,319.0,403.0,327.0" stroke="black" stroke-width="2" fill="none" />
<polyline points="404.0,289.0,396.0,295.0,388.0,297.0,380.0,300.0,372.0,296.0,364.0,290.0,356.0,280.0" stroke="black" stroke-width="2" fill="none" />
<polyline points="352.0,290.0,360.0,298.0,368.0,303.0,376.0,305.0,384.0,307.0,392.0,307.0,400.0,303.0,408.0,296.0,416.0,285.0" stroke="black" stroke-width="2" fill="none" />
<polyline points="424.0,303.0,416.0,310.0,408.0,317.0,400.0,321.0,392.0,322.0,384.0,323.0,376.0,323.0,368.0,321.0,360.0,319.0,352.0,314.0,344.0,307.0,336.0,294.0" stroke="black" stroke-width="2" fill="none" />
<polyline points="324.0,290.0,329.0,298.0,333.0,306.0,339.0,314.0,351.0,322.0" stroke="black" stroke-width="2" fill="none" />
<polyline points="399.0,293.0,406.0,285.0,409.0,277.0,411.0,269.0,408.0,261.0,402.0,253.0,393.0,245.0" stroke="black" stroke-width="2" fill="none" />
<polyline points="395.0,237.0,406.0,245.0,414.0,253.0,416.0,261.0,418.0,269.0,418.0,277.0,415.0,285.0,411.0,293.0,401.0,301.0" stroke="black" stroke-width="2" fill="none" />
<polyline points="376.0,300.0,364.0,292.0,357.0,284.0,354.0,276.0,354.0,268.0,357.0,260.0,361.0,252.0,372.0,244.0" stroke="black" stroke-width="2" fill="none" />
<polyline points="371.0,236.0,357.0,244.0,352.0,252.0,348.0,260.0,346.0,268.0,346.0,276.0,349.0,284.0,353.0,292.0,360.0,300.0,378.0,308.0" stroke="black" stroke-width="2" fill="none" />
<polyline points="355.0,317.0,346.0,309.0,339.0,301.0,334.0,293.0,332.0,285.0,330.0,277.0,328.0,269.0,332.0,261.0,333.0,253.0,336.0,245.0,341.0,237.0,350.0,229.0,366.0,221.0" stroke="black" stroke-width="2" fill="none" />
<polyline points="364.0,213.0,348.0,221.0,339.0,229.0,332.0,237.0,328.0,245.0,324.0,253.0,322.0,261.0,322.0,269.0,322.0,277.0" stroke="black" stroke-width="2" fill="none" />
<polyline points="396.0,220.0,411.0,228.0,421.0,236.0,427.0,244.0,430.0,252.0,433.0,260.0,434.0,268.0,434.0,276.0,432.0,284.0,430.0,292.0,426.0,300.0,418.0,308.0,408.0,316.0" stroke="black" stroke-width="2" fill="none" />
<polyline points="331.0,277.0,317.0,280.0,309.0,280.0,301.0,280.0,293.0,280.0,285.0,280.0,277.0,280.0,269.0,280.0,261.0,280.0,253.0,280.0,245.0,280.0,237.0,280.0,229.0,280.0,221.0,280.0,213.0,280.0,205.0,279.0,197.0,279.0,191.0,278.0,191.0,270.0,191.0,262.0,188.0,254.0,184.0,246.0,180.0,238.0,173.0,230.0,164.0,222.0,149.0,214.0" stroke="black" stroke-width="2" fill="none" />
<polyline points="47.0,140.0,33.0,148.0,25.0,156.0,21.0,164.0,18.0,172.0,16.0,180.0,16.0,188.0,15.0,196.0,15.0,204.0,15.0,212.0,15.0,220.0,12.0,228.0,11.0,236.0,12.0,244.0,15.0,252.0,15.0,260.0,19.0,268.0,23.0,276.0,36.0,284.0" stroke="black" stroke-width="2" fill="none" />
<polyline points="235.0,134.0,227.0,134.0,219.0,134.0,211.0,134.0,203.0,134.0,195.0,134.0,187.0,134.0,179.0,134.0,171.0,134.0,163.0,134.0,155.0,134.0,147.0,134.0,139.0,133.0,133.0,130.0,134.0,122.0,136.0,114.0,139.0,106.0,141.0,98.0,145.0,90.0,150.0,82.0,157.0,74.0,164.0,66.0,182.0,58.0" stroke="black" stroke-width="2" fill="none" />
<polyline points="172.0,53.0,158.0,61.0,150.0,69.0,145.0,77.0,139.0,85.0,135.0,93.0,131.0,101.0,130.0,109.0,129.0,117.0,127.0,125.0,125.0,133.0,126.0,137.0,134.0,141.0,142.0,141.0,150.0,140.0,158.0,140.0,166.0,140.0,174.0,140.0,182.0,140.0,190.0,140.0,198.0,140.0,206.0,140.0,214.0,140.0,222.0,140.0,230.0,140.0,238.0,140.0,246.0,141.0" stroke="black" stroke-width="2" fill="none" />
<polyline points="242.0,129.0,242.0,121.0,242.0,113.0,242.0,105.0,242.0,97.0,242.0,89.0,242.0,81.0,242.0,73.0,242.0,65.0,240.0,57.0" stroke="black" stroke-width="2" fill="none" />
<polyline points="169.0,35.0,153.0,43.0,142.0,51.0,134.0,59.0,128.0,67.0,123.0,75.0,119.0,83.0,116.0,91.0,113.0,99.0,111.0,107.0,110.0,115.0,109.0,123.0,104.0,131.0,90.0,139.0" stroke="black" stroke-width="2" fill="none" />
<polyline points="330.0,58.0,346.0,66.0,355.0,74.0,361.0,82.0,367.0,90.0,371.0,98.0,374.0,106.0,376.0,114.0,378.0,122.0,379.0,130.0" stroke="black" stroke-width="2" fill="none" />
<polyline points="460.0,148.0,474.0,156.0,481.0,164.0,486.0,172.0,488.0,180.0,488.0,188.0,489.0,196.0,490.0,204.0,491.0,212.0,491.0,220.0,491.0,228.0,491.0,236.0,491.0,244.0,490.0,252.0,489.0,260.0,483.0,268.0,472.0,276.0" stroke="black" stroke-width="2" fill="none" />
<polyline points="475.0,284.0,488.0,276.0,493.0,268.0,497.0,260.0,497.0,252.0,501.0,244.0,500.0,236.0,500.0,228.0,497.0,220.0,497.0,212.0,498.0,204.0,498.0,196.0,496.0,188.0,495.0,180.0,494.0,172.0,491.0,164.0,487.0,156.0,478.0,148.0" stroke="black" stroke-width="2" fill="none" />
<polyline points="387.0,134.0,385.0,126.0,385.0,118.0,382.0,110.0,380.0,102.0,377.0,94.0,373.0,86.0,367.0,78.0,362.0,70.0,354.0,62.0,341.0,54.0" stroke="black" stroke-width="2" fill="none" />
<polyline points="344.0,36.0,360.0,44.0,371.0,52.0,379.0,60.0,385.0,68.0,388.0,76.0,393.0,84.0,396.0,92.0,399.0,100.0,402.0,108.0,402.0,116.0,403.0,124.0,408.0,132.0" stroke="black" stroke-width="2" fill="none" />
<polyline points="414.0,125.0,411.0,117.0,409.0,109.0,408.0,101.0,404.0,93.0,402.0,85.0,399.0,77.0,394.0,69.0,389.0,61.0,382.0,53.0,374.0,45.0,362.0,37.0,348.0,29.0" stroke="black" stroke-width="2" fill="none" />
</svg>