<svg xmlns="http://www.w3.org/2000/svg" height="502px" width="489px" version="1.1"><polyline points="245.0,17.0,245.0,25.0,243.0,33.0,242.0,41.0,242.0,49.0,241.0,57.0,240.0,65.0,237.0,73.0,237.0,81.0,230.0,89.0,224.0,97.0,220.0,105.0,217.0,113.0,214.0,121.0,213.0,129.0" stroke="black" stroke-width="2" fill="none" />
<polyline points="219.0,108.0,227.0,94.0,235.0,84.0" stroke="black" stroke-width="2" fill="none" />
<polyline points="208.0,138.0,200.0,133.0,192.0,130.0,184.0,125.0,176.0,120.0,168.0,113.0,160.0,109.0,152.0,103.0" stroke="black" stroke-width="2" fill="none" />
<polyline points="151.0,100.0,157.0,108.0,168.0,116.0,178.0,124.0,194.0,132.0,208.0,140.0,213.0,148.0,215.0,160.0" stroke="black" stroke-width="2" fill="none" />
<polyline points="212.0,161.0,204.0,163.0,196.0,163.0,188.0,166.0,180.0,169.0,172.0,173.0,179.0,174.0,180.0,173.0,172.0,176.0" stroke="black" stroke-width="2" fill="none" />
<polyline points="181.0,171.0,189.0,169.0,197.0,167.0,205.0,167.0,213.0,166.0,221.0,167.0,229.0,181.0,237.0,189.0,245.0,197.0,253.0,203.0,261.0,208.0,269.0,213.0" stroke="black" stroke-width="2" fill="none" />
<polyline points="328.0,232.0,331.0,227.0,327.0,235.0,325.0,243.0,323.0,251.0,320.0,259.0,318.0,267.0,317.0,275.0,317.0,283.0,317.0,291.0,317.0,299.0,317.0,307.0,320.0,315.0,322.0,323.0,323.0,331.0,326.0,339.0,328.0,347.0,331.0,355.0,334.0,363.0,337.0,371.0,342.0,379.0,344.0,387.0" stroke="black" stroke-width="2" fill="none" />
<polyline points="365.0,393.0,378.0,401.0,384.0,409.0,388.0,417.0,388.0,425.0,388.0,433.0,388.0,441.0,384.0,449.0,380.0,457.0,377.0,465.0,385.0,447.0" stroke="black" stroke-width="2" fill="none" />
<polyline points="379.0,464.0,387.0,464.0,395.0,467.0" stroke="black" stroke-width="2" fill="none" />
<polyline points="394.0,468.0,400.0,476.0,401.0,484.0,396.0,492.0" stroke="black" stroke-width="2" fill="none" />
<polyline points="384.0,404.0,376.0,398.0,368.0,392.0,360.0,390.0,352.0,390.0,344.0,383.0,336.0,366.0" stroke="black" stroke-width="2" fill="none" />
<polyline points="332.0,224.0,340.0,221.0,348.0,221.0,356.0,220.0,364.0,220.0,372.0,217.0,380.0,214.0,388.0,210.0,396.0,204.0,404.0,193.0,412.0,190.0,420.0,193.0,428.0,196.0,436.0,201.0,444.0,205.0,452.0,212.0" stroke="black" stroke-width="2" fill="none" />
<polyline points="452.0,209.0,444.0,202.0,436.0,196.0,428.0,193.0,420.0,190.0,412.0,184.0" stroke="black" stroke-width="2" fill="none" />
<polyline points="411.0,183.0,419.0,181.0,427.0,180.0,435.0,180.0,443.0,180.0,451.0,179.0,459.0,178.0,467.0,179.0,475.0,176.0,483.0,174.0" stroke="black" stroke-width="2" fill="none" />
<polyline points="489.0,147.0,481.0,150.0,473.0,154.0,465.0,156.0,457.0,158.0,449.0,159.0,441.0,161.0,433.0,163.0,425.0,164.0,417.0,164.0" stroke="black" stroke-width="2" fill="none" />
<polyline points="414.0,173.0,422.0,168.0,430.0,166.0,438.0,166.0,446.0,164.0,454.0,163.0,462.0,161.0,470.0,158.0,478.0,155.0,486.0,152.0" stroke="black" stroke-width="2" fill="none" />
<polyline points="479.0,173.0,471.0,173.0,463.0,174.0,455.0,176.0,447.0,175.0,439.0,175.0,431.0,176.0,423.0,176.0,415.0,176.0" stroke="black" stroke-width="2" fill="none" />
<polyline points="413.0,192.0,431.0,200.0" stroke="black" stroke-width="2" fill="none" />
<polyline points="408.0,191.0,400.0,199.0,394.0,207.0,376.0,215.0" stroke="black" stroke-width="2" fill="none" />
<polyline points="267.0,219.0,259.0,221.0,251.0,225.0,243.0,231.0,235.0,237.0,227.0,242.0,219.0,250.0,211.0,258.0,203.0,267.0,195.0,279.0,187.0,291.0,179.0,306.0,176.0,312.0,180.0,304.0,184.0,296.0,188.0,288.0,194.0,280.0,198.0,272.0,206.0,264.0,212.0,256.0,221.0,248.0,231.0,240.0,241.0,232.0,254.0,224.0,270.0,216.0,255.0,208.0,245.0,200.0,237.0,192.0,229.0,184.0,224.0,176.0,219.0,168.0" stroke="black" stroke-width="2" fill="none" />
<polyline points="211.0,152.0,203.0,150.0,195.0,147.0,187.0,145.0,179.0,141.0,171.0,138.0,163.0,135.0,155.0,130.0" stroke="black" stroke-width="2" fill="none" />
<polyline points="154.0,127.0,162.0,130.0,170.0,134.0,178.0,137.0,186.0,140.0,194.0,142.0,202.0,145.0,210.0,149.0" stroke="black" stroke-width="2" fill="none" />
<polyline points="214.0,133.0,206.0,133.0,198.0,128.0,190.0,123.0,182.0,120.0,174.0,114.0,166.0,109.0,158.0,103.0,150.0,99.0" stroke="black" stroke-width="2" fill="none" />
<polyline points="149.0,100.0,160.0,107.0,173.0,115.0,185.0,123.0,200.0,131.0" stroke="black" stroke-width="2" fill="none" />
<polyline points="182.0,145.0,165.0,137.0" stroke="black" stroke-width="2" fill="none" />
<polyline points="114.0,227.0,132.0,235.0,139.0,243.0,149.0,251.0,156.0,259.0,161.0,267.0,165.0,275.0,167.0,283.0,169.0,291.0,170.0,299.0,170.0,307.0,172.0,315.0" stroke="black" stroke-width="2" fill="none" />
<polyline points="151.0,276.0,143.0,263.0,135.0,255.0,127.0,248.0,119.0,244.0,111.0,241.0,103.0,239.0,95.0,237.0,87.0,237.0,79.0,236.0,71.0,237.0,63.0,239.0,55.0,242.0,47.0,247.0,39.0,252.0,31.0,265.0" stroke="black" stroke-width="2" fill="none" />
<polyline points="16.0,261.0,24.0,248.0,32.0,239.0,40.0,232.0,48.0,229.0,56.0,225.0,64.0,223.0,72.0,221.0,80.0,221.0,88.0,221.0,96.0,221.0,104.0,222.0,112.0,225.0,120.0,229.0,128.0,232.0,136.0,236.0,144.0,244.0,152.0,253.0,160.0,264.0" stroke="black" stroke-width="2" fill="none" />
<polyline points="111.0,243.0,129.0,251.0,136.0,259.0,145.0,267.0,149.0,275.0,151.0,283.0,154.0,291.0,157.0,299.0,157.0,307.0,158.0,315.0,158.0,323.0,157.0,331.0,155.0,339.0,155.0,347.0,152.0,355.0,149.0,363.0,146.0,371.0,145.0,379.0,143.0,387.0,140.0,395.0,141.0,403.0,140.0,411.0,140.0,419.0,143.0,427.0,143.0,435.0,145.0,443.0,148.0,451.0,151.0,459.0,155.0,467.0,161.0,475.0,169.0,483.0,182.0,491.0" stroke="black" stroke-width="2" fill="none" />
<polyline points="150.0,453.0,158.0,469.0,166.0,477.0,174.0,484.0,182.0,489.0,190.0,493.0,198.0,495.0,206.0,499.0,214.0,499.0,222.0,500.0,230.0,500.0,238.0,502.0,246.0,502.0,254.0,502.0,262.0,502.0,270.0,502.0,278.0,502.0,286.0,502.0,294.0,502.0,302.0,502.0,310.0,502.0,318.0,502.0,326.0,502.0,334.0,502.0,342.0,501.0,350.0,501.0,358.0,500.0,366.0,500.0,374.0,498.0,382.0,499.0,390.0,495.0,398.0,488.0" stroke="black" stroke-width="2" fill="none" />
<polyline points="87.0,329.0,79.0,336.0,71.0,339.0,63.0,340.0,55.0,341.0,47.0,339.0,39.0,335.0,31.0,329.0,23.0,322.0,15.0,307.0" stroke="black" stroke-width="2" fill="none" />
<polyline points="33.0,310.0,41.0,319.0,49.0,323.0,57.0,327.0,65.0,324.0,73.0,322.0,81.0,314.0,89.0,302.0,83.0,308.0,80.0,316.0,69.0,324.0" stroke="black" stroke-width="2" fill="none" />
<polyline points="79.0,336.0,87.0,328.0,89.0,320.0,92.0,312.0,89.0,304.0" stroke="black" stroke-width="2" fill="none" />
<polyline points="42.0,322.0,33.0,314.0,30.0,306.0,26.0,298.0,26.0,290.0,27.0,282.0,27.0,274.0,30.0,266.0,36.0,258.0,42.0,250.0,56.0,242.0" stroke="black" stroke-width="2" fill="none" />
<polyline points="55.0,226.0,38.0,234.0,29.0,242.0,22.0,250.0,17.0,258.0,15.0,266.0,12.0,274.0,12.0,282.0,13.0,290.0,12.0,298.0,15.0,306.0,17.0,314.0,21.0,322.0,29.0,330.0,41.0,338.0" stroke="black" stroke-width="2" fill="none" />
<polyline points="280.0,66.0,274.0,58.0,269.0,50.0,264.0,42.0,259.0,34.0,253.0,26.0,248.0,18.0" stroke="black" stroke-width="2" fill="none" />
<polyline points="246.0,16.0,254.0,24.0,262.0,36.0,270.0,48.0,278.0,61.0,286.0,66.0,294.0,64.0,302.0,64.0,310.0,64.0,318.0,64.0,326.0,64.0,334.0,65.0,342.0,66.0,350.0,67.0,358.0,70.0,366.0,75.0,374.0,75.0,382.0,67.0,390.0,57.0,398.0,49.0,406.0,40.0" stroke="black" stroke-width="2" fill="none" />
<polyline points="410.0,36.0,403.0,44.0,395.0,52.0,388.0,60.0,381.0,68.0,373.0,76.0" stroke="black" stroke-width="2" fill="none" />
<polyline points="411.0,37.0,411.0,45.0,410.0,53.0,410.0,61.0,407.0,69.0,407.0,77.0,407.0,85.0,406.0,93.0,405.0,101.0,405.0,109.0,408.0,117.0,411.0,125.0,414.0,133.0,415.0,141.0,418.0,149.0,417.0,157.0,415.0,165.0,413.0,176.0,412.0,188.0,430.0,196.0,444.0,204.0,448.0,212.0" stroke="black" stroke-width="2" fill="none" />
</svg>