<svg xmlns="http://www.w3.org/2000/svg" height="389px" width="503px" version="1.1"><polyline points="123.0,8.0,99.0,16.0,81.0,24.0,68.0,32.0,56.0,40.0,46.0,48.0,40.0,56.0,33.0,64.0,27.0,72.0,23.0,80.0,19.0,88.0,16.0,96.0,13.0,104.0,10.0,112.0,8.0,120.0,7.0,128.0,6.0,136.0,6.0,144.0,7.0,152.0,8.0,160.0,10.0,168.0,13.0,176.0,18.0,184.0,24.0,192.0,28.0,200.0,21.0,208.0,15.0,216.0,12.0,224.0,9.0,232.0,8.0,240.0,7.0,248.0,7.0,256.0,7.0,264.0,9.0,272.0,11.0,280.0,13.0,288.0,16.0,296.0,19.0,304.0,23.0,312.0,28.0,320.0,33.0,328.0,40.0,336.0,46.0,344.0,55.0,352.0,68.0,360.0,81.0,368.0,100.0,376.0" stroke="black" stroke-width="2" fill="none" />
<polyline points="189.0,328.0,197.0,345.0,205.0,356.0,213.0,361.0,221.0,365.0,229.0,367.0,237.0,368.0,245.0,368.0,253.0,368.0,261.0,366.0,269.0,364.0,277.0,360.0,285.0,356.0,293.0,348.0,301.0,337.0,306.0,325.0,303.0,333.0,298.0,341.0,291.0,349.0,282.0,357.0,264.0,365.0" stroke="black" stroke-width="2" fill="none" />
<polyline points="311.0,342.0,319.0,361.0,327.0,370.0,335.0,377.0,343.0,382.0,351.0,386.0,359.0,388.0,367.0,389.0,375.0,389.0,383.0,388.0,391.0,385.0,399.0,380.0,407.0,373.0,415.0,362.0,423.0,345.0" stroke="black" stroke-width="2" fill="none" />
<polyline points="423.0,308.0,415.0,294.0" stroke="black" stroke-width="2" fill="none" />
<polyline points="415.0,293.0,425.0,301.0" stroke="black" stroke-width="2" fill="none" />
<polyline points="414.0,292.0,422.0,297.0,430.0,303.0,438.0,307.0,446.0,308.0,454.0,308.0,462.0,308.0,470.0,306.0,478.0,301.0,486.0,295.0,494.0,286.0,502.0,269.0" stroke="black" stroke-width="2" fill="none" />
<polyline points="496.0,219.0,488.0,210.0,480.0,203.0,472.0,199.0,464.0,196.0,456.0,195.0" stroke="black" stroke-width="2" fill="none" />
<polyline points="464.0,202.0,478.0,210.0,488.0,218.0,493.0,226.0,496.0,234.0,498.0,242.0,500.0,250.0,500.0,258.0,499.0,266.0,496.0,274.0,492.0,282.0,484.0,290.0,473.0,298.0" stroke="black" stroke-width="2" fill="none" />
<polyline points="495.0,278.0,487.0,288.0,479.0,295.0,471.0,300.0,463.0,302.0,455.0,303.0,447.0,303.0,439.0,302.0,431.0,297.0,423.0,291.0,415.0,286.0,407.0,281.0" stroke="black" stroke-width="2" fill="none" />
<polyline points="406.0,279.0,414.0,270.0,422.0,260.0,430.0,247.0" stroke="black" stroke-width="2" fill="none" />
<polyline points="440.0,202.0,448.0,199.0,456.0,200.0,464.0,201.0,472.0,204.0,480.0,210.0,488.0,216.0,496.0,230.0" stroke="black" stroke-width="2" fill="none" />
<polyline points="488.0,165.0,480.0,177.0,472.0,183.0,464.0,186.0,456.0,188.0,448.0,190.0,440.0,191.0" stroke="black" stroke-width="2" fill="none" />
<polyline points="432.0,155.0,424.0,142.0,416.0,132.0,408.0,124.0,400.0,117.0" stroke="black" stroke-width="2" fill="none" />
<polyline points="386.0,108.0,366.0,100.0" stroke="black" stroke-width="2" fill="none" />
<polyline points="361.0,103.0,382.0,111.0,393.0,119.0,402.0,127.0,410.0,135.0,416.0,143.0,422.0,151.0,426.0,159.0,429.0,167.0,432.0,175.0,433.0,183.0,433.0,191.0,434.0,199.0,434.0,207.0,434.0,215.0,433.0,223.0,431.0,231.0,428.0,239.0,424.0,247.0,419.0,255.0,413.0,263.0,406.0,271.0,397.0,279.0,385.0,287.0,370.0,295.0" stroke="black" stroke-width="2" fill="none" />
<polyline points="370.0,301.0,386.0,293.0,398.0,285.0" stroke="black" stroke-width="2" fill="none" />
<polyline points="401.0,286.0,407.0,294.0,413.0,302.0,417.0,310.0,420.0,318.0,421.0,326.0,420.0,334.0,419.0,342.0,416.0,350.0,412.0,358.0,406.0,366.0,398.0,374.0" stroke="black" stroke-width="2" fill="none" />
<polyline points="414.0,356.0,406.0,367.0,398.0,375.0,390.0,380.0,382.0,383.0,374.0,384.0,366.0,384.0,358.0,383.0,350.0,380.0,342.0,375.0,334.0,370.0,326.0,362.0,318.0,351.0" stroke="black" stroke-width="2" fill="none" />
<polyline points="315.0,310.0,323.0,310.0,331.0,309.0,339.0,309.0,347.0,308.0,355.0,306.0,363.0,304.0,371.0,301.0,379.0,298.0,387.0,293.0,395.0,287.0,403.0,286.0,411.0,297.0,419.0,311.0" stroke="black" stroke-width="2" fill="none" />
<polyline points="413.0,292.0,418.0,300.0,422.0,308.0,424.0,316.0,425.0,324.0,424.0,332.0,423.0,340.0,421.0,348.0,418.0,356.0,413.0,364.0,407.0,372.0,398.0,380.0" stroke="black" stroke-width="2" fill="none" />
<polyline points="339.0,381.0,328.0,373.0,320.0,365.0,315.0,357.0,312.0,349.0,309.0,341.0,308.0,333.0,308.0,325.0,298.0,332.0,290.0,343.0,282.0,351.0,274.0,357.0,266.0,359.0,258.0,361.0,250.0,363.0,242.0,363.0,234.0,362.0,226.0,360.0,218.0,357.0,210.0,352.0,202.0,343.0,194.0,324.0" stroke="black" stroke-width="2" fill="none" />
<polyline points="194.0,294.0,202.0,278.0,210.0,269.0,218.0,263.0,226.0,257.0,234.0,266.0,242.0,276.0,250.0,283.0,258.0,288.0,266.0,293.0,274.0,297.0,282.0,301.0,290.0,304.0,298.0,307.0,306.0,309.0,304.0,316.0,301.0,324.0,297.0,332.0,292.0,340.0,284.0,348.0,274.0,356.0" stroke="black" stroke-width="2" fill="none" />
<polyline points="281.0,297.0,265.0,289.0,252.0,281.0,243.0,273.0,237.0,265.0,232.0,257.0,226.0,249.0,223.0,241.0,220.0,233.0,218.0,225.0,216.0,217.0,215.0,209.0,215.0,201.0,215.0,193.0,216.0,185.0,218.0,177.0,221.0,169.0,224.0,161.0,228.0,153.0,233.0,145.0,239.0,137.0,246.0,129.0,256.0,121.0,268.0,113.0,287.0,105.0,295.0,98.0,287.0,100.0,279.0,104.0,271.0,107.0,263.0,111.0,255.0,117.0,247.0,123.0,239.0,131.0,231.0,141.0,223.0,148.0,215.0,144.0,207.0,140.0,199.0,134.0,191.0,124.0,183.0,108.0" stroke="black" stroke-width="2" fill="none" />
<polyline points="178.0,115.0,186.0,129.0,194.0,137.0,202.0,143.0" stroke="black" stroke-width="2" fill="none" />
<polyline points="206.0,148.0,198.0,146.0,190.0,145.0,182.0,145.0,174.0,146.0,166.0,149.0,158.0,152.0,150.0,156.0,142.0,162.0,134.0,170.0,126.0,181.0,118.0,181.0,110.0,182.0,102.0,183.0,94.0,184.0,86.0,185.0,78.0,187.0,70.0,189.0,62.0,191.0" stroke="black" stroke-width="2" fill="none" />
<polyline points="59.0,192.0,67.0,187.0,75.0,182.0,83.0,177.0,91.0,171.0,99.0,164.0,107.0,156.0,115.0,147.0,123.0,136.0,131.0,124.0,139.0,110.0,147.0,94.0" stroke="black" stroke-width="2" fill="none" />
<polyline points="176.0,77.0,184.0,60.0,192.0,50.0,200.0,43.0,208.0,40.0,216.0,37.0,224.0,36.0,232.0,36.0,240.0,36.0,248.0,38.0,256.0,40.0,264.0,43.0,272.0,47.0,280.0,54.0,288.0,64.0" stroke="black" stroke-width="2" fill="none" />
<polyline points="297.0,52.0,305.0,35.0,313.0,25.0,321.0,17.0,329.0,13.0,337.0,9.0,345.0,7.0,353.0,6.0,361.0,6.0,369.0,8.0,377.0,11.0,385.0,15.0,393.0,21.0,401.0,32.0,409.0,46.0" stroke="black" stroke-width="2" fill="none" />
<polyline points="406.0,50.0,398.0,35.0,390.0,25.0,382.0,19.0,374.0,15.0,366.0,12.0,358.0,12.0,350.0,12.0,342.0,14.0,334.0,17.0,326.0,21.0,318.0,27.0,310.0,36.0,302.0,51.0" stroke="black" stroke-width="2" fill="none" />
<polyline points="295.0,87.0,287.0,71.0,279.0,60.0,271.0,52.0,263.0,48.0,255.0,45.0,247.0,43.0,239.0,42.0,231.0,41.0,223.0,42.0,215.0,43.0,207.0,46.0,199.0,50.0,191.0,59.0,183.0,73.0" stroke="black" stroke-width="2" fill="none" />
<polyline points="145.0,81.0,137.0,101.0,129.0,116.0,121.0,130.0,113.0,142.0,105.0,150.0,97.0,158.0,89.0,165.0,81.0,171.0,73.0,177.0,65.0,181.0,57.0,185.0,49.0,189.0,41.0,192.0,33.0,188.0,25.0,179.0,17.0,163.0" stroke="black" stroke-width="2" fill="none" />
<polyline points="11.0,167.0,19.0,183.0,27.0,193.0" stroke="black" stroke-width="2" fill="none" />
<polyline points="40.0,202.0,59.0,210.0,76.0,218.0,86.0,226.0,96.0,234.0,104.0,242.0,112.0,250.0,119.0,258.0,123.0,266.0,128.0,274.0,133.0,282.0,138.0,290.0,141.0,298.0,144.0,306.0,147.0,314.0,149.0,322.0,151.0,330.0,153.0,338.0,154.0,346.0,155.0,354.0,156.0,362.0,156.0,370.0,155.0,378.0" stroke="black" stroke-width="2" fill="none" />
<polyline points="188.0,293.0,196.0,277.0,204.0,267.0,212.0,260.0" stroke="black" stroke-width="2" fill="none" />
<polyline points="217.0,251.0,209.0,254.0,201.0,256.0,193.0,257.0,185.0,257.0,177.0,256.0,169.0,254.0,161.0,251.0,153.0,246.0,145.0,240.0,137.0,232.0,129.0,216.0" stroke="black" stroke-width="2" fill="none" />
<polyline points="122.0,213.0,130.0,231.0,138.0,241.0,146.0,249.0,154.0,253.0,162.0,258.0,170.0,261.0,178.0,263.0,186.0,264.0,194.0,263.0,202.0,261.0,210.0,259.0,211.0,260.0,202.0,268.0,196.0,276.0,191.0,284.0,188.0,292.0,186.0,300.0,185.0,308.0,185.0,316.0,187.0,324.0,189.0,332.0,192.0,340.0,197.0,348.0,203.0,356.0,217.0,364.0" stroke="black" stroke-width="2" fill="none" />
<polyline points="153.0,308.0,145.0,289.0,137.0,274.0,129.0,261.0,121.0,250.0,113.0,240.0,105.0,232.0,97.0,225.0,89.0,219.0,81.0,214.0,73.0,208.0,65.0,204.0,57.0,200.0" stroke="black" stroke-width="2" fill="none" />
<polyline points="56.0,200.0,71.0,208.0,83.0,216.0,94.0,224.0,103.0,232.0,111.0,240.0,118.0,248.0,124.0,256.0,129.0,264.0,134.0,272.0,138.0,280.0,143.0,288.0,147.0,296.0,150.0,304.0,153.0,312.0,156.0,320.0,158.0,328.0,159.0,336.0,160.0,344.0,161.0,352.0,161.0,360.0,160.0,368.0,160.0,376.0,158.0,384.0" stroke="black" stroke-width="2" fill="none" />
<polyline points="148.0,382.0,140.0,380.0,132.0,379.0,124.0,377.0,116.0,374.0,108.0,372.0,100.0,368.0,92.0,365.0,84.0,361.0,76.0,356.0,68.0,351.0,60.0,345.0,52.0,338.0,44.0,329.0,36.0,317.0,28.0,302.0,20.0,282.0" stroke="black" stroke-width="2" fill="none" />
<polyline points="13.0,284.0,21.0,305.0,29.0,319.0,37.0,330.0,45.0,341.0,53.0,348.0,61.0,355.0,69.0,359.0,77.0,364.0,85.0,369.0,93.0,373.0,101.0,376.0,109.0,379.0,117.0,381.0,125.0,383.0,133.0,385.0,141.0,386.0,149.0,387.0,157.0,388.0" stroke="black" stroke-width="2" fill="none" />
<polyline points="146.0,308.0,138.0,288.0,130.0,274.0,122.0,261.0,114.0,250.0,106.0,242.0,98.0,234.0,90.0,227.0,82.0,221.0,74.0,215.0,66.0,212.0,58.0,208.0,50.0,205.0,42.0,202.0,34.0,205.0,26.0,214.0,18.0,230.0" stroke="black" stroke-width="2" fill="none" />
<polyline points="10.0,231.0,18.0,213.0,26.0,203.0,34.0,204.0,27.0,212.0,21.0,220.0,18.0,228.0,16.0,236.0,15.0,244.0,14.0,252.0,15.0,260.0,15.0,268.0,17.0,276.0,19.0,284.0,22.0,292.0,25.0,300.0,29.0,308.0,34.0,316.0,39.0,324.0,45.0,332.0,52.0,340.0,62.0,348.0,73.0,356.0,89.0,364.0,107.0,372.0" stroke="black" stroke-width="2" fill="none" />
<polyline points="215.0,251.0,218.0,243.0,215.0,235.0,212.0,227.0,211.0,219.0,210.0,211.0,210.0,203.0,210.0,195.0,211.0,187.0,212.0,179.0,214.0,171.0,217.0,163.0,220.0,156.0,212.0,155.0,204.0,153.0,196.0,151.0,188.0,150.0,180.0,150.0,172.0,151.0,164.0,154.0,156.0,159.0,148.0,164.0,140.0,172.0,132.0,183.0,120.0,188.0,112.0,188.0,104.0,189.0,96.0,190.0,88.0,191.0,80.0,192.0,72.0,194.0,64.0,197.0,58.0,192.0,71.0,184.0,84.0,176.0,94.0,168.0,103.0,160.0,110.0,152.0,117.0,144.0,122.0,136.0,128.0,128.0,133.0,120.0,137.0,112.0,142.0,104.0,145.0,96.0,149.0,88.0,152.0,80.0,154.0,72.0,156.0,64.0,158.0,56.0,158.0,48.0,159.0,40.0,159.0,32.0,159.0,24.0,158.0,16.0,157.0,8.0,155.0,3.0,147.0,4.0,139.0,5.0,131.0,7.0,123.0,9.0,115.0,11.0,107.0,14.0,99.0,17.0,91.0,20.0,83.0,24.0,75.0,29.0,67.0,33.0,59.0,38.0,51.0,45.0,43.0,52.0,35.0,63.0,27.0,74.0,19.0,90.0,11.0,111.0" stroke="black" stroke-width="2" fill="none" />
<polyline points="18.0,108.0,26.0,87.0,34.0,74.0,42.0,63.0,50.0,55.0,58.0,48.0,66.0,42.0,74.0,36.0,82.0,32.0,90.0,28.0,98.0,24.0,106.0,21.0,114.0,18.0,122.0,15.0,130.0,13.0,138.0,11.0,146.0,10.0,151.0,10.0,153.0,18.0,153.0,26.0,154.0,34.0,153.0,42.0,152.0,50.0,151.0,58.0,149.0,66.0,147.0,74.0,144.0,82.0,141.0,90.0,138.0,98.0,134.0,106.0,130.0,114.0,125.0,122.0,120.0,130.0,115.0,138.0,108.0,146.0,100.0,154.0,91.0,162.0,81.0,170.0,70.0,178.0,53.0,186.0" stroke="black" stroke-width="2" fill="none" />
<polyline points="121.0,189.0,120.0,197.0,120.0,205.0,121.0,213.0,123.0,221.0,127.0,229.0,132.0,237.0,140.0,245.0,151.0,253.0,168.0,261.0" stroke="black" stroke-width="2" fill="none" />
<polyline points="225.0,257.0,214.0,265.0,205.0,273.0,199.0,281.0,195.0,289.0,193.0,297.0,191.0,305.0,191.0,313.0,192.0,321.0,194.0,329.0,197.0,337.0,201.0,345.0,209.0,353.0" stroke="black" stroke-width="2" fill="none" />
<polyline points="227.0,259.0,233.0,267.0,239.0,275.0,248.0,283.0,260.0,291.0,275.0,299.0,296.0,307.0" stroke="black" stroke-width="2" fill="none" />
<polyline points="316.0,309.0,314.0,317.0,314.0,325.0,314.0,333.0,315.0,341.0,316.0,349.0,320.0,357.0,327.0,365.0,336.0,373.0,352.0,381.0" stroke="black" stroke-width="2" fill="none" />
<polyline points="309.0,272.0,309.0,268.0" stroke="black" stroke-width="2" fill="none" />
<polyline points="318.0,242.0,326.0,237.0,334.0,237.0,342.0,237.0,343.0,239.0,347.0,247.0" stroke="black" stroke-width="2" fill="none" />
<polyline points="345.0,250.0,337.0,251.0,329.0,251.0,321.0,250.0,317.0,245.0,325.0,237.0" stroke="black" stroke-width="2" fill="none" />
<polyline points="306.0,214.0,311.0,206.0,309.0,198.0,308.0,194.0,300.0,200.0" stroke="black" stroke-width="2" fill="none" />
<polyline points="302.0,194.0,299.0,202.0,300.0,210.0,304.0,214.0" stroke="black" stroke-width="2" fill="none" />
<polyline points="311.0,218.0,303.0,219.0,295.0,209.0" stroke="black" stroke-width="2" fill="none" />
<polyline points="295.0,196.0,303.0,189.0,311.0,189.0,313.0,193.0,316.0,201.0,315.0,209.0,311.0,217.0" stroke="black" stroke-width="2" fill="none" />
<polyline points="295.0,213.0,293.0,205.0,294.0,197.0,300.0,189.0" stroke="black" stroke-width="2" fill="none" />
<polyline points="316.0,162.0,324.0,169.0,332.0,170.0,340.0,168.0" stroke="black" stroke-width="2" fill="none" />
<polyline points="342.0,166.0,344.0,158.0,341.0,155.0,333.0,154.0,325.0,155.0,317.0,158.0" stroke="black" stroke-width="2" fill="none" />
<polyline points="315.0,162.0,325.0,154.0" stroke="black" stroke-width="2" fill="none" />
<polyline points="317.0,135.0,316.0,129.0,317.0,130.0,307.0,130.0,301.0,130.0,309.0,125.0,301.0,125.0" stroke="black" stroke-width="2" fill="none" />
<polyline points="251.0,183.0,259.0,165.0,267.0,154.0,275.0,145.0,283.0,139.0,291.0,134.0,287.0,136.0,275.0,144.0,268.0,152.0,261.0,160.0,256.0,168.0,253.0,176.0,250.0,184.0,249.0,192.0,248.0,200.0,248.0,208.0,249.0,216.0,251.0,224.0,254.0,232.0,258.0,240.0,263.0,248.0,272.0,256.0,280.0,264.0" stroke="black" stroke-width="2" fill="none" />
<polyline points="285.0,266.0,277.0,260.0,269.0,251.0,261.0,242.0,253.0,226.0" stroke="black" stroke-width="2" fill="none" />
<polyline points="246.0,223.0,254.0,241.0,262.0,252.0,270.0,261.0,278.0,269.0,286.0,272.0" stroke="black" stroke-width="2" fill="none" />
<polyline points="282.0,272.0,271.0,264.0,263.0,256.0,256.0,248.0,251.0,240.0,248.0,232.0,245.0,224.0,243.0,216.0,242.0,208.0,242.0,200.0,243.0,192.0,244.0,184.0,247.0,176.0,250.0,168.0,254.0,160.0,260.0,152.0,267.0,144.0,277.0,136.0,293.0,130.0,285.0,131.0,277.0,137.0,269.0,144.0,261.0,152.0,253.0,164.0,245.0,184.0" stroke="black" stroke-width="2" fill="none" />
<polyline points="220.0,173.0,228.0,154.0,236.0,143.0,244.0,132.0,252.0,125.0,260.0,119.0,268.0,114.0,276.0,109.0,284.0,107.0,292.0,104.0,300.0,102.0,308.0,100.0,316.0,99.0,324.0,98.0,332.0,98.0,340.0,98.0,348.0,100.0,356.0,101.0,364.0,103.0,372.0,106.0,380.0,109.0,388.0,113.0,396.0,120.0,404.0,127.0,412.0,135.0,420.0,145.0,428.0,159.0" stroke="black" stroke-width="2" fill="none" />
<polyline points="492.0,167.0,484.0,178.0,476.0,185.0,468.0,190.0,460.0,193.0,469.0,184.0,480.0,176.0,486.0,168.0,490.0,160.0,492.0,152.0,494.0,144.0,495.0,136.0,495.0,128.0,494.0,120.0,491.0,112.0,485.0,104.0,477.0,96.0,462.0,88.0" stroke="black" stroke-width="2" fill="none" />
<polyline points="462.0,83.0,477.0,91.0,486.0,99.0,492.0,107.0,496.0,115.0,499.0,123.0,499.0,131.0,499.0,139.0,498.0,147.0,496.0,155.0,493.0,163.0,489.0,171.0,482.0,179.0,472.0,187.0,471.0,199.0,483.0,207.0,491.0,215.0,496.0,223.0,500.0,231.0,502.0,239.0,503.0,247.0,503.0,255.0,502.0,263.0,501.0,271.0,498.0,279.0,492.0,287.0,485.0,295.0,473.0,303.0" stroke="black" stroke-width="2" fill="none" />
<polyline points="429.0,238.0,421.0,253.0,413.0,264.0,405.0,273.0,397.0,280.0,389.0,286.0,381.0,290.0,373.0,294.0,365.0,298.0,357.0,301.0,349.0,303.0,341.0,304.0,333.0,305.0,325.0,305.0,317.0,305.0,309.0,304.0,301.0,302.0,293.0,300.0,285.0,298.0,277.0,294.0,269.0,290.0,261.0,286.0,253.0,280.0,245.0,273.0,237.0,262.0,229.0,250.0,221.0,232.0" stroke="black" stroke-width="2" fill="none" />
<polyline points="171.0,255.0,152.0,247.0,142.0,239.0,135.0,231.0,130.0,223.0,127.0,215.0,126.0,207.0,127.0,199.0,128.0,191.0,131.0,183.0,137.0,175.0,144.0,167.0,154.0,159.0,171.0,151.0" stroke="black" stroke-width="2" fill="none" />
<polyline points="169.0,147.0,151.0,155.0,140.0,163.0,133.0,171.0,126.0,179.0" stroke="black" stroke-width="2" fill="none" />
<polyline points="230.0,142.0,236.0,134.0,243.0,126.0,252.0,118.0,264.0,110.0,281.0,102.0,297.0,94.0,293.0,86.0,289.0,78.0,284.0,70.0,279.0,62.0,271.0,54.0,256.0,46.0" stroke="black" stroke-width="2" fill="none" />
<polyline points="255.0,40.0,271.0,48.0,280.0,56.0,286.0,64.0,292.0,72.0" stroke="black" stroke-width="2" fill="none" />
<polyline points="343.0,13.0,325.0,21.0,315.0,29.0,308.0,37.0,303.0,45.0,301.0,53.0,300.0,61.0,300.0,69.0,302.0,77.0,303.0,85.0,304.0,93.0,311.0,95.0,319.0,93.0,327.0,93.0,335.0,93.0,343.0,94.0,351.0,95.0,359.0,97.0,367.0,100.0,375.0,103.0,383.0,106.0,391.0,109.0,399.0,99.0,407.0,82.0" stroke="black" stroke-width="2" fill="none" />
<polyline points="432.0,82.0,416.0,90.0,408.0,98.0,414.0,93.0,422.0,87.0,430.0,83.0,438.0,81.0,446.0,80.0,454.0,81.0,462.0,82.0,470.0,85.0,478.0,90.0,486.0,97.0,494.0,107.0" stroke="black" stroke-width="2" fill="none" />
<polyline points="436.0,86.0,419.0,94.0,410.0,102.0,402.0,110.0,399.0,118.0,408.0,126.0,416.0,134.0,422.0,142.0,427.0,150.0,432.0,158.0,434.0,166.0,436.0,174.0,437.0,182.0,438.0,190.0,439.0,203.0,439.0,211.0,438.0,219.0,436.0,227.0,434.0,235.0,431.0,243.0,427.0,251.0,422.0,259.0,416.0,267.0,409.0,275.0,408.0,283.0,420.0,291.0,432.0,299.0" stroke="black" stroke-width="2" fill="none" />
<polyline points="218.0,147.0,203.0,139.0,195.0,131.0,188.0,123.0,184.0,115.0,181.0,107.0,180.0,99.0,179.0,91.0,180.0,83.0,182.0,75.0,185.0,67.0,190.0,59.0,197.0,51.0,213.0,43.0" stroke="black" stroke-width="2" fill="none" />
<polyline points="214.0,37.0,197.0,45.0,188.0,53.0,182.0,61.0,178.0,69.0,175.0,77.0,174.0,85.0,173.0,93.0,173.0,101.0,175.0,109.0,178.0,117.0,181.0,125.0,187.0,133.0,197.0,141.0" stroke="black" stroke-width="2" fill="none" />
<polyline points="121.0,15.0,100.0,23.0,82.0,31.0,68.0,39.0,58.0,47.0,49.0,55.0,41.0,63.0,36.0,71.0,30.0,79.0,25.0,87.0,22.0,95.0,19.0,103.0,17.0,111.0,15.0,119.0,14.0,127.0,13.0,135.0,13.0,143.0,14.0,151.0,15.0,159.0,17.0,167.0,21.0,175.0,27.0,183.0,35.0,191.0" stroke="black" stroke-width="2" fill="none" />
<polyline points="295.0,72.0,294.0,64.0,295.0,56.0,298.0,48.0,301.0,40.0,306.0,32.0,313.0,24.0,322.0,16.0,339.0,8.0" stroke="black" stroke-width="2" fill="none" />
<polyline points="366.0,13.0,383.0,21.0,392.0,29.0,398.0,37.0,403.0,45.0,406.0,53.0,407.0,61.0,408.0,69.0,408.0,77.0,405.0,85.0,401.0,93.0,397.0,101.0,394.0,109.0,404.0,109.0,412.0,101.0,420.0,94.0,428.0,89.0,436.0,87.0,444.0,85.0,452.0,86.0,460.0,87.0,468.0,89.0,476.0,94.0,484.0,101.0,492.0,111.0" stroke="black" stroke-width="2" fill="none" />
<polyline points="410.0,90.0,405.0,97.0,410.0,89.0,412.0,81.0,412.0,73.0,412.0,65.0,411.0,57.0,409.0,49.0,405.0,41.0,400.0,33.0,394.0,25.0,386.0,17.0,370.0,9.0" stroke="black" stroke-width="2" fill="none" />
</svg>