<svg xmlns="http://www.w3.org/2000/svg" height="236px" width="507px" version="1.1"><polyline points="237.0,11.0,218.0,19.0,205.0,27.0,194.0,35.0,183.0,43.0,173.0,51.0,169.0,57.0,161.0,64.0,161.0,69.0,169.0,70.0,177.0,71.0,185.0,72.0,193.0,72.0,201.0,73.0,209.0,74.0,217.0,75.0,225.0,75.0,233.0,76.0,241.0,77.0,249.0,77.0,257.0,78.0,265.0,78.0,273.0,79.0,281.0,79.0,289.0,81.0,297.0,81.0,305.0,82.0,313.0,83.0,321.0,83.0,329.0,68.0,337.0,49.0" stroke="black" stroke-width="2" fill="none" />
<polyline points="344.0,65.0,352.0,45.0,360.0,28.0,368.0,24.0,376.0,23.0,384.0,23.0,392.0,25.0,400.0,27.0,408.0,30.0,418.0,35.0,426.0,39.0,434.0,43.0,442.0,49.0" stroke="black" stroke-width="2" fill="none" />
<polyline points="428.0,68.0,420.0,69.0" stroke="black" stroke-width="2" fill="none" />
<polyline points="422.0,72.0,430.0,77.0" stroke="black" stroke-width="2" fill="none" />
<polyline points="422.0,99.0,418.0,98.0" stroke="black" stroke-width="2" fill="none" />
<polyline points="415.0,98.0,423.0,90.0,431.0,89.0" stroke="black" stroke-width="2" fill="none" />
<polyline points="427.0,106.0,419.0,106.0" stroke="black" stroke-width="2" fill="none" />
<polyline points="455.0,117.0,463.0,101.0,471.0,92.0,479.0,88.0,487.0,88.0,495.0,94.0" stroke="black" stroke-width="2" fill="none" />
<polyline points="492.0,93.0,497.0,101.0,500.0,109.0,495.0,117.0,497.0,125.0,494.0,133.0,489.0,139.0,490.0,143.0,484.0,146.0,488.0,151.0,485.0,159.0,481.0,167.0,479.0,173.0,487.0,165.0" stroke="black" stroke-width="2" fill="none" />
<polyline points="480.0,165.0,482.0,157.0,478.0,146.0,476.0,138.0,473.0,130.0,478.0,122.0,479.0,117.0,484.0,115.0,482.0,104.0,474.0,105.0" stroke="black" stroke-width="2" fill="none" />
<polyline points="479.0,107.0,487.0,112.0" stroke="black" stroke-width="2" fill="none" />
<polyline points="481.0,112.0,477.0,116.0" stroke="black" stroke-width="2" fill="none" />
<polyline points="469.0,116.0,469.0,124.0,473.0,122.0,470.0,130.0,472.0,142.0,476.0,150.0,473.0,158.0,473.0,166.0" stroke="black" stroke-width="2" fill="none" />
<polyline points="468.0,157.0,472.0,148.0,481.0,145.0,489.0,149.0" stroke="black" stroke-width="2" fill="none" />
<polyline points="487.0,135.0,490.0,129.0,486.0,137.0,479.0,142.0,483.0,132.0,493.0,121.0,498.0,123.0" stroke="black" stroke-width="2" fill="none" />
<polyline points="494.0,122.0,492.0,130.0,492.0,138.0,492.0,146.0" stroke="black" stroke-width="2" fill="none" />
<polyline points="490.0,115.0,484.0,127.0,484.0,130.0,488.0,122.0,489.0,111.0,484.0,103.0,477.0,106.0,469.0,110.0" stroke="black" stroke-width="2" fill="none" />
<polyline points="468.0,114.0,476.0,103.0,471.0,103.0,465.0,111.0,462.0,119.0,460.0,127.0,459.0,135.0,459.0,143.0,459.0,151.0,461.0,159.0,463.0,167.0,469.0,175.0,472.0,176.0,480.0,176.0" stroke="black" stroke-width="2" fill="none" />
<polyline points="466.0,169.0,467.0,163.0,466.0,154.0,461.0,145.0,466.0,139.0,463.0,134.0" stroke="black" stroke-width="2" fill="none" />
<polyline points="462.0,133.0,464.0,126.0,473.0,132.0,481.0,126.0" stroke="black" stroke-width="2" fill="none" />
<polyline points="463.0,117.0,471.0,104.0,479.0,101.0,487.0,106.0" stroke="black" stroke-width="2" fill="none" />
<polyline points="492.0,105.0,484.0,96.0,476.0,94.0" stroke="black" stroke-width="2" fill="none" />
<polyline points="479.0,95.0,490.0,103.0,493.0,111.0,495.0,116.0,484.0,126.0,480.0,134.0,481.0,144.0,483.0,152.0,477.0,155.0,477.0,163.0,479.0,162.0" stroke="black" stroke-width="2" fill="none" />
<polyline points="459.0,177.0,461.0,169.0,457.0,161.0,455.0,153.0,454.0,145.0,454.0,137.0,455.0,129.0,457.0,121.0,459.0,113.0,463.0,105.0,462.0,108.0" stroke="black" stroke-width="2" fill="none" />
<polyline points="465.0,101.0,473.0,97.0,481.0,97.0,489.0,105.0" stroke="black" stroke-width="2" fill="none" />
<polyline points="495.0,99.0,487.0,91.0,479.0,90.0,471.0,94.0" stroke="black" stroke-width="2" fill="none" />
<polyline points="478.0,90.0,471.0,91.0,463.0,99.0,458.0,107.0,455.0,115.0,453.0,123.0,452.0,131.0,451.0,139.0,451.0,147.0,452.0,158.0,457.0,166.0,450.0,174.0,454.0,175.0,454.0,177.0,454.0,179.0,458.0,172.0,462.0,177.0,470.0,181.0,478.0,179.0,486.0,176.0,492.0,167.0,489.0,159.0,485.0,167.0,476.0,172.0,479.0,167.0,480.0,156.0" stroke="black" stroke-width="2" fill="none" />
<polyline points="471.0,169.0,470.0,161.0,470.0,153.0,470.0,145.0,470.0,137.0,463.0,131.0,467.0,126.0,467.0,118.0,458.0,117.0" stroke="black" stroke-width="2" fill="none" />
<polyline points="485.0,88.0,491.0,96.0,496.0,104.0,498.0,112.0,499.0,120.0,499.0,128.0,496.0,136.0,497.0,144.0" stroke="black" stroke-width="2" fill="none" />
<polyline points="444.0,158.0,436.0,158.0,428.0,160.0,420.0,163.0,412.0,165.0,404.0,167.0,396.0,169.0,388.0,172.0,380.0,174.0,372.0,177.0,364.0,179.0,356.0,181.0,348.0,183.0,340.0,185.0,332.0,188.0,324.0,191.0" stroke="black" stroke-width="2" fill="none" />
<polyline points="321.0,190.0,329.0,186.0,337.0,184.0,345.0,181.0,353.0,179.0,361.0,177.0,369.0,175.0,377.0,172.0,385.0,169.0,393.0,167.0,401.0,165.0,409.0,163.0,417.0,160.0,425.0,158.0,433.0,157.0,441.0,155.0,449.0,154.0,452.0,157.0" stroke="black" stroke-width="2" fill="none" />
<polyline points="451.0,168.0,443.0,166.0,435.0,165.0,427.0,167.0,419.0,169.0,411.0,171.0,403.0,173.0,395.0,175.0,387.0,177.0,379.0,179.0,371.0,182.0,363.0,184.0,355.0,186.0,347.0,188.0,339.0,190.0,331.0,193.0,323.0,194.0,310.0,206.0,303.0,220.0,298.0,228.0,290.0,232.0,282.0,235.0,274.0,236.0,266.0,236.0,258.0,236.0,250.0,234.0,242.0,230.0,234.0,223.0,226.0,224.0,218.0,224.0,210.0,225.0,202.0,225.0,194.0,225.0,186.0,224.0,178.0,225.0,170.0,224.0,162.0,223.0,154.0,223.0,146.0,223.0,138.0,222.0,130.0,222.0,122.0,221.0,114.0,221.0,106.0,220.0,98.0,219.0,90.0,218.0,82.0,217.0,74.0,216.0,66.0,214.0,58.0,212.0,50.0,210.0,42.0,208.0,34.0,205.0,26.0,202.0,18.0,198.0,10.0,191.0" stroke="black" stroke-width="2" fill="none" />
<polyline points="11.0,189.0,19.0,196.0,27.0,200.0,35.0,203.0,43.0,205.0,51.0,207.0,59.0,209.0,67.0,211.0,75.0,212.0,83.0,213.0,91.0,215.0,99.0,216.0,107.0,216.0,115.0,218.0,123.0,219.0,131.0,219.0,139.0,220.0,147.0,220.0,155.0,220.0,163.0,221.0,171.0,222.0,179.0,221.0,187.0,222.0,195.0,222.0,203.0,222.0,211.0,222.0,219.0,221.0,227.0,221.0,235.0,220.0,243.0,219.0,250.0,216.0,256.0,224.0" stroke="black" stroke-width="2" fill="none" />
<polyline points="252.0,218.0,260.0,226.0,268.0,231.0,276.0,232.0,284.0,231.0,292.0,229.0,300.0,223.0" stroke="black" stroke-width="2" fill="none" />
<polyline points="296.0,218.0,304.0,210.0,308.0,202.0,311.0,194.0,313.0,186.0,313.0,178.0,313.0,170.0,311.0,162.0,307.0,154.0,301.0,146.0,287.0,138.0,284.0,142.0" stroke="black" stroke-width="2" fill="none" />
<polyline points="285.0,144.0,293.0,145.0" stroke="black" stroke-width="2" fill="none" />
<polyline points="294.0,149.0,290.0,149.0,282.0,145.0" stroke="black" stroke-width="2" fill="none" />
<polyline points="284.0,147.0,286.0,155.0" stroke="black" stroke-width="2" fill="none" />
<polyline points="285.0,149.0,293.0,159.0,298.0,168.0,296.0,175.0,306.0,171.0" stroke="black" stroke-width="2" fill="none" />
<polyline points="297.0,188.0,294.0,180.0,286.0,181.0" stroke="black" stroke-width="2" fill="none" />
<polyline points="288.0,187.0,296.0,192.0,297.0,197.0" stroke="black" stroke-width="2" fill="none" />
<polyline points="304.0,201.0,301.0,194.0,303.0,186.0,302.0,178.0,305.0,177.0,307.0,169.0,306.0,166.0,305.0,168.0,298.0,169.0,290.0,172.0,287.0,168.0,276.0,171.0,264.0,169.0,263.0,165.0,266.0,157.0,266.0,149.0,255.0,163.0" stroke="black" stroke-width="2" fill="none" />
<polyline points="251.0,166.0,261.0,151.0,264.0,154.0" stroke="black" stroke-width="2" fill="none" />
<polyline points="267.0,155.0,269.0,163.0,267.0,171.0" stroke="black" stroke-width="2" fill="none" />
<polyline points="262.0,172.0,254.0,174.0" stroke="black" stroke-width="2" fill="none" />
<polyline points="254.0,168.0,262.0,167.0" stroke="black" stroke-width="2" fill="none" />
<polyline points="251.0,180.0,259.0,176.0,267.0,174.0,275.0,177.0,283.0,174.0" stroke="black" stroke-width="2" fill="none" />
<polyline points="289.0,191.0,292.0,199.0,289.0,209.0" stroke="black" stroke-width="2" fill="none" />
<polyline points="290.0,206.0,279.0,199.0,273.0,191.0,260.0,187.0,252.0,185.0" stroke="black" stroke-width="2" fill="none" />
<polyline points="252.0,183.0,251.0,179.0,249.0,187.0,248.0,195.0,249.0,203.0,251.0,211.0,259.0,219.0,258.0,222.0" stroke="black" stroke-width="2" fill="none" />
<polyline points="258.0,229.0,249.0,221.0" stroke="black" stroke-width="2" fill="none" />
<polyline points="251.0,215.0,259.0,220.0,267.0,226.0,275.0,229.0,283.0,229.0,291.0,226.0,299.0,221.0" stroke="black" stroke-width="2" fill="none" />
<polyline points="290.0,229.0,298.0,227.0,306.0,219.0,311.0,211.0,315.0,203.0,316.0,195.0,317.0,187.0,317.0,179.0,324.0,176.0,324.0,168.0,323.0,160.0,322.0,152.0,320.0,144.0,316.0,136.0,310.0,128.0,305.0,126.0,297.0,123.0,289.0,123.0,281.0,125.0" stroke="black" stroke-width="2" fill="none" />
<polyline points="278.0,127.0,286.0,127.0,294.0,129.0,302.0,132.0,310.0,139.0,318.0,154.0" stroke="black" stroke-width="2" fill="none" />
<polyline points="319.0,146.0,311.0,132.0" stroke="black" stroke-width="2" fill="none" />
<polyline points="299.0,124.0,306.0,125.0,310.0,133.0,315.0,141.0,318.0,149.0,320.0,157.0,321.0,165.0,321.0,173.0,321.0,181.0,319.0,189.0,314.0,194.0,312.0,199.0,309.0,207.0,305.0,212.0,302.0,220.0,289.0,226.0" stroke="black" stroke-width="2" fill="none" />
<polyline points="297.0,210.0,289.0,213.0,281.0,217.0,292.0,210.0,289.0,202.0,284.0,194.0,279.0,192.0,288.0,189.0,285.0,181.0,287.0,172.0,291.0,168.0,285.0,159.0,282.0,151.0,280.0,143.0,279.0,146.0,271.0,144.0" stroke="black" stroke-width="2" fill="none" />
<polyline points="269.0,142.0,277.0,139.0,285.0,137.0,293.0,139.0,301.0,144.0,309.0,155.0" stroke="black" stroke-width="2" fill="none" />
<polyline points="297.0,145.0,289.0,141.0,281.0,141.0" stroke="black" stroke-width="2" fill="none" />
<polyline points="287.0,141.0,297.0,149.0,302.0,151.0,296.0,159.0,288.0,167.0,276.0,172.0,278.0,180.0,280.0,180.0,275.0,185.0,272.0,194.0,270.0,199.0,273.0,206.0,265.0,207.0,267.0,210.0,260.0,220.0" stroke="black" stroke-width="2" fill="none" />
<polyline points="267.0,217.0,275.0,212.0" stroke="black" stroke-width="2" fill="none" />
<polyline points="280.0,202.0,272.0,203.0,267.0,196.0,260.0,189.0,252.0,188.0" stroke="black" stroke-width="2" fill="none" />
<polyline points="251.0,194.0,251.0,202.0,255.0,210.0,256.0,215.0,264.0,221.0,272.0,225.0,280.0,226.0,288.0,224.0,296.0,220.0,304.0,211.0,318.0,197.0,326.0,196.0,334.0,194.0,342.0,192.0,350.0,190.0,358.0,188.0,366.0,185.0,374.0,183.0,382.0,181.0,390.0,179.0,398.0,177.0,406.0,175.0,414.0,172.0,423.0,170.0,431.0,169.0,439.0,169.0,447.0,171.0" stroke="black" stroke-width="2" fill="none" />
<polyline points="440.0,168.0,448.0,176.0,458.0,182.0,466.0,183.0,474.0,183.0" stroke="black" stroke-width="2" fill="none" />
<polyline points="424.0,153.0,416.0,155.0" stroke="black" stroke-width="2" fill="none" />
<polyline points="410.0,154.0,416.0,146.0,420.0,138.0,424.0,130.0,428.0,122.0,430.0,114.0,433.0,106.0,428.0,101.0,427.0,96.0,433.0,88.0,427.0,80.0,414.0,72.0,416.0,63.0,415.0,55.0,414.0,47.0,408.0,43.0,408.0,35.0,406.0,38.0" stroke="black" stroke-width="2" fill="none" />
<polyline points="410.0,35.0,412.0,43.0,412.0,50.0,411.0,58.0,411.0,66.0" stroke="black" stroke-width="2" fill="none" />
<polyline points="409.0,68.0,401.0,70.0,393.0,70.0,385.0,64.0,377.0,61.0,369.0,59.0,361.0,60.0,353.0,68.0,345.0,68.0" stroke="black" stroke-width="2" fill="none" />
<polyline points="345.0,80.0,353.0,80.0,361.0,80.0,369.0,80.0,377.0,79.0,385.0,79.0" stroke="black" stroke-width="2" fill="none" />
<polyline points="379.0,77.0,371.0,77.0,363.0,77.0,355.0,77.0" stroke="black" stroke-width="2" fill="none" />
<polyline points="359.0,60.0,352.0,68.0,354.0,75.0,362.0,75.0,370.0,74.0,378.0,74.0" stroke="black" stroke-width="2" fill="none" />
<polyline points="386.0,80.0,389.0,72.0,376.0,64.0" stroke="black" stroke-width="2" fill="none" />
<polyline points="376.0,61.0,391.0,69.0" stroke="black" stroke-width="2" fill="none" />
<polyline points="386.0,67.0,378.0,64.0,370.0,62.0,362.0,63.0,355.0,70.0,347.0,72.0,339.0,78.0,332.0,85.0" stroke="black" stroke-width="2" fill="none" />
<polyline points="335.0,86.0,343.0,85.0,351.0,82.0,359.0,82.0,367.0,83.0,375.0,82.0,383.0,82.0,391.0,79.0,399.0,74.0,407.0,72.0,420.0,74.0,428.0,79.0" stroke="black" stroke-width="2" fill="none" />
<polyline points="413.0,55.0,413.0,63.0,425.0,75.0,433.0,83.0,436.0,91.0,436.0,99.0,435.0,107.0,433.0,115.0,430.0,123.0,426.0,131.0,423.0,139.0,419.0,147.0,414.0,155.0,422.0,142.0,430.0,125.0" stroke="black" stroke-width="2" fill="none" />
<polyline points="449.0,54.0,441.0,44.0,433.0,39.0,425.0,35.0,417.0,31.0,409.0,27.0,401.0,25.0,393.0,22.0,385.0,20.0,377.0,20.0,369.0,21.0,361.0,24.0,353.0,34.0,341.0,46.0,333.0,67.0,325.0,84.0,317.0,87.0,309.0,87.0,301.0,89.0,293.0,89.0,285.0,91.0,277.0,92.0,269.0,94.0,261.0,96.0,253.0,97.0,245.0,99.0,237.0,101.0,229.0,103.0,221.0,106.0" stroke="black" stroke-width="2" fill="none" />
<polyline points="223.0,108.0,219.0,108.0,211.0,108.0" stroke="black" stroke-width="2" fill="none" />
<polyline points="209.0,109.0,217.0,112.0,226.0,112.0,228.0,120.0,225.0,128.0,218.0,136.0,211.0,144.0,217.0,145.0,225.0,146.0,233.0,146.0,241.0,144.0,249.0,144.0,257.0,143.0,265.0,136.0,273.0,128.0,281.0,122.0,289.0,120.0,297.0,120.0,305.0,123.0,313.0,130.0,321.0,144.0" stroke="black" stroke-width="2" fill="none" />
<polyline points="307.0,160.0,304.0,155.0,296.0,162.0,288.0,162.0,281.0,161.0,273.0,160.0,281.0,157.0,278.0,149.0,275.0,146.0,278.0,158.0,274.0,158.0,273.0,150.0,274.0,149.0" stroke="black" stroke-width="2" fill="none" />
<polyline points="286.0,148.0,295.0,156.0,299.0,162.0" stroke="black" stroke-width="2" fill="none" />
<polyline points="315.0,153.0,307.0,140.0,299.0,134.0,291.0,131.0,283.0,130.0,275.0,131.0,267.0,138.0" stroke="black" stroke-width="2" fill="none" />
<polyline points="272.0,131.0,266.0,139.0,270.0,151.0,271.0,159.0,272.0,172.0,267.0,180.0,268.0,185.0,265.0,192.0,267.0,200.0,272.0,201.0,269.0,209.0,275.0,211.0,276.0,217.0,283.0,213.0" stroke="black" stroke-width="2" fill="none" />
<polyline points="279.0,211.0,284.0,203.0" stroke="black" stroke-width="2" fill="none" />
<polyline points="285.0,200.0,278.0,208.0,276.0,209.0" stroke="black" stroke-width="2" fill="none" />
<polyline points="263.0,206.0,255.0,202.0" stroke="black" stroke-width="2" fill="none" />
<polyline points="252.0,201.0,260.0,213.0,268.0,202.0,278.0,196.0,291.0,196.0,299.0,201.0" stroke="black" stroke-width="2" fill="none" />
<polyline points="295.0,204.0,287.0,200.0,274.0,206.0,268.0,207.0,263.0,203.0,262.0,195.0,265.0,191.0,257.0,191.0,249.0,194.0" stroke="black" stroke-width="2" fill="none" />
<polyline points="252.0,197.0,255.0,205.0" stroke="black" stroke-width="2" fill="none" />
<polyline points="239.0,223.0,247.0,221.0,255.0,225.0,263.0,231.0" stroke="black" stroke-width="2" fill="none" />
<polyline points="264.0,234.0,256.0,233.0,248.0,230.0,240.0,225.0" stroke="black" stroke-width="2" fill="none" />
<polyline points="238.0,224.0,252.0,232.0" stroke="black" stroke-width="2" fill="none" />
<polyline points="186.0,179.0,178.0,179.0,170.0,179.0,162.0,179.0,154.0,179.0,146.0,178.0,138.0,178.0" stroke="black" stroke-width="2" fill="none" />
<polyline points="136.0,191.0,144.0,191.0,152.0,192.0,163.0,192.0,171.0,192.0,179.0,191.0,187.0,189.0" stroke="black" stroke-width="2" fill="none" />
<polyline points="179.0,200.0,171.0,201.0,163.0,201.0,151.0,196.0,143.0,196.0,135.0,194.0" stroke="black" stroke-width="2" fill="none" />
<polyline points="133.0,193.0,141.0,185.0,149.0,185.0,157.0,185.0,162.0,188.0,170.0,185.0,178.0,185.0,186.0,185.0,189.0,182.0" stroke="black" stroke-width="2" fill="none" />
<polyline points="184.0,193.0,176.0,196.0,168.0,196.0,160.0,196.0,148.0,201.0,140.0,200.0,132.0,200.0" stroke="black" stroke-width="2" fill="none" />
<polyline points="128.0,198.0,136.0,183.0,144.0,181.0,152.0,181.0" stroke="black" stroke-width="2" fill="none" />
<polyline points="148.0,169.0,136.0,177.0,134.0,190.0,130.0,199.0,130.0,208.0,136.0,204.0,143.0,203.0,151.0,205.0,164.0,209.0,172.0,208.0" stroke="black" stroke-width="2" fill="none" />
<polyline points="180.0,205.0,172.0,211.0,164.0,212.0,156.0,212.0,148.0,212.0,140.0,212.0,132.0,212.0" stroke="black" stroke-width="2" fill="none" />
<polyline points="111.0,200.0,110.0,192.0,112.0,189.0,104.0,187.0,96.0,186.0" stroke="black" stroke-width="2" fill="none" />
<polyline points="94.0,174.0,91.0,175.0,91.0,183.0,94.0,184.0,100.0,180.0,108.0,181.0,116.0,181.0,124.0,182.0,132.0,182.0,141.0,170.0,149.0,167.0,157.0,166.0,165.0,165.0,173.0,165.0,181.0,166.0,189.0,167.0" stroke="black" stroke-width="2" fill="none" />
<polyline points="190.0,168.0,190.0,176.0,193.0,176.0,188.0,184.0,189.0,190.0,185.0,198.0,178.0,206.0" stroke="black" stroke-width="2" fill="none" />
<polyline points="190.0,170.0,182.0,169.0,174.0,168.0,166.0,168.0,158.0,169.0,150.0,169.0,142.0,173.0,130.0,184.0,122.0,184.0,114.0,184.0,106.0,184.0,98.0,183.0,86.0,190.0,78.0,190.0,70.0,189.0,62.0,188.0,54.0,187.0,46.0,185.0,38.0,183.0,30.0,179.0" stroke="black" stroke-width="2" fill="none" />
<polyline points="17.0,176.0,18.0,183.0,26.0,189.0,35.0,197.0" stroke="black" stroke-width="2" fill="none" />
<polyline points="7.0,187.0,15.0,189.0,27.0,187.0,35.0,196.0,43.0,198.0,51.0,201.0,59.0,203.0,67.0,203.0,75.0,205.0,83.0,206.0,91.0,207.0,99.0,207.0,107.0,207.0" stroke="black" stroke-width="2" fill="none" />
<polyline points="114.0,201.0,106.0,210.0,98.0,210.0,90.0,210.0,82.0,209.0,74.0,208.0,66.0,206.0,58.0,205.0,50.0,203.0,42.0,201.0,34.0,198.0,26.0,191.0,16.0,192.0,10.0,181.0,10.0,173.0,17.0,171.0,18.0,165.0,10.0,159.0" stroke="black" stroke-width="2" fill="none" />
<polyline points="13.0,157.0,21.0,158.0,29.0,162.0,37.0,164.0,45.0,165.0,53.0,167.0,61.0,168.0,69.0,168.0,77.0,169.0,85.0,170.0,93.0,171.0,101.0,171.0" stroke="black" stroke-width="2" fill="none" />
<polyline points="101.0,174.0,91.0,173.0,83.0,172.0,75.0,172.0,67.0,170.0,59.0,170.0,51.0,168.0,43.0,167.0,35.0,166.0,23.0,163.0,15.0,158.0" stroke="black" stroke-width="2" fill="none" />
<polyline points="15.0,156.0,30.0,164.0,28.0,172.0,29.0,180.0,32.0,184.0,40.0,186.0,48.0,188.0,56.0,189.0,64.0,191.0,72.0,192.0,80.0,192.0,88.0,192.0,96.0,189.0,104.0,190.0,112.0,192.0" stroke="black" stroke-width="2" fill="none" />
<polyline points="114.0,192.0,114.0,200.0,109.0,208.0" stroke="black" stroke-width="2" fill="none" />
<polyline points="146.0,167.0,135.0,175.0,135.0,183.0,131.0,191.0,127.0,199.0,127.0,207.0,131.0,211.0,139.0,209.0,147.0,209.0,160.0,205.0,168.0,205.0,176.0,204.0" stroke="black" stroke-width="2" fill="none" />
<polyline points="185.0,148.0,177.0,145.0,173.0,147.0,175.0,139.0,175.0,136.0" stroke="black" stroke-width="2" fill="none" />
<polyline points="170.0,139.0,172.0,133.0,169.0,141.0,172.0,149.0,176.0,150.0,181.0,151.0,181.0,154.0,189.0,153.0,197.0,152.0,197.0,149.0,206.0,142.0,215.0,147.0,223.0,149.0,231.0,149.0,239.0,147.0,247.0,147.0,255.0,146.0,262.0,147.0,266.0,142.0,274.0,137.0,282.0,134.0,290.0,135.0,298.0,139.0,306.0,145.0,314.0,159.0" stroke="black" stroke-width="2" fill="none" />
<polyline points="286.0,145.0,297.0,153.0,303.0,165.0,297.0,173.0,297.0,178.0,297.0,186.0,300.0,187.0,298.0,201.0,298.0,209.0" stroke="black" stroke-width="2" fill="none" />
<polyline points="344.0,191.0,360.0,179.0" stroke="black" stroke-width="2" fill="none" />
<polyline points="314.0,167.0,312.0,159.0,308.0,151.0,302.0,143.0,288.0,135.0" stroke="black" stroke-width="2" fill="none" />
<polyline points="290.0,131.0,305.0,139.0,311.0,147.0,314.0,155.0,316.0,163.0,317.0,171.0" stroke="black" stroke-width="2" fill="none" />
<polyline points="287.0,195.0,285.0,188.0,280.0,182.0,272.0,184.0,262.0,187.0,263.0,177.0,258.0,176.0,253.0,170.0,255.0,162.0,262.0,154.0,259.0,150.0,268.0,142.0,280.0,134.0" stroke="black" stroke-width="2" fill="none" />
<polyline points="290.0,128.0,305.0,136.0,312.0,144.0,316.0,152.0,318.0,160.0,319.0,168.0,319.0,180.0,320.0,189.0,328.0,178.0" stroke="black" stroke-width="2" fill="none" />
<polyline points="286.0,120.0,271.0,128.0,264.0,136.0,257.0,148.0,254.0,156.0,251.0,164.0,249.0,172.0,248.0,180.0,246.0,188.0,245.0,196.0,246.0,204.0,248.0,212.0,239.0,222.0,240.0,230.0" stroke="black" stroke-width="2" fill="none" />
<polyline points="223.0,132.0,215.0,140.0,205.0,140.0,198.0,142.0,196.0,147.0,193.0,146.0,190.0,147.0,188.0,151.0,195.0,143.0,199.0,134.0,203.0,126.0,201.0,122.0,203.0,113.0,195.0,116.0" stroke="black" stroke-width="2" fill="none" />
<polyline points="189.0,120.0,197.0,117.0,205.0,118.0,213.0,120.0,221.0,119.0,219.0,127.0,213.0,135.0" stroke="black" stroke-width="2" fill="none" />
<polyline points="212.0,125.0,204.0,122.0" stroke="black" stroke-width="2" fill="none" />
<polyline points="208.0,118.0,211.0,126.0" stroke="black" stroke-width="2" fill="none" />
<polyline points="215.0,117.0,207.0,115.0" stroke="black" stroke-width="2" fill="none" />
<polyline points="206.0,113.0,214.0,113.0,201.0,109.0,186.0,117.0,175.0,125.0,159.0,133.0" stroke="black" stroke-width="2" fill="none" />
<polyline points="153.0,139.0,168.0,131.0,177.0,130.0,185.0,122.0,192.0,122.0,191.0,121.0,183.0,125.0,175.0,130.0,167.0,133.0,159.0,136.0,151.0,140.0,143.0,144.0,135.0,145.0,127.0,147.0,119.0,147.0,111.0,146.0,103.0,146.0,95.0,144.0,87.0,144.0,79.0,142.0,71.0,141.0,63.0,139.0,55.0,137.0,47.0,135.0" stroke="black" stroke-width="2" fill="none" />
<polyline points="46.0,134.0,54.0,135.0,62.0,136.0,70.0,138.0,78.0,139.0,86.0,141.0,94.0,141.0,102.0,143.0,110.0,143.0,118.0,144.0,126.0,144.0,134.0,143.0,142.0,141.0,150.0,138.0,158.0,134.0,166.0,130.0,174.0,126.0,182.0,121.0,190.0,116.0,198.0,112.0,206.0,108.0,214.0,105.0,222.0,103.0,230.0,101.0,238.0,98.0,246.0,96.0,254.0,94.0,262.0,93.0,270.0,91.0,278.0,89.0,286.0,88.0,294.0,87.0,302.0,86.0" stroke="black" stroke-width="2" fill="none" />
<polyline points="322.0,85.0,327.0,77.0,331.0,69.0,335.0,61.0,338.0,53.0,341.0,45.0,344.0,37.0,344.0,29.0,341.0,24.0,333.0,22.0,325.0,21.0,317.0,21.0,309.0,20.0,301.0,19.0,293.0,19.0,285.0,17.0,277.0,17.0,269.0,17.0,261.0,17.0,253.0,17.0,245.0,17.0,237.0,16.0" stroke="black" stroke-width="2" fill="none" />
<polyline points="239.0,13.0,235.0,17.0,241.0,13.0,249.0,11.0,257.0,10.0,265.0,9.0,273.0,8.0,281.0,8.0,289.0,8.0,297.0,8.0,305.0,8.0,313.0,8.0,321.0,9.0,329.0,9.0,337.0,11.0,345.0,11.0,353.0,11.0,361.0,13.0,369.0,13.0,377.0,14.0,385.0,16.0,393.0,18.0,401.0,20.0,409.0,22.0,417.0,26.0,425.0,30.0,433.0,34.0,441.0,39.0,449.0,45.0,457.0,51.0,465.0,58.0,473.0,64.0,481.0,68.0,489.0,71.0,497.0,79.0,505.0,89.0" stroke="black" stroke-width="2" fill="none" />
<polyline points="492.0,71.0,499.0,79.0,502.0,87.0,506.0,95.0,507.0,103.0,506.0,111.0,504.0,119.0,501.0,127.0,500.0,135.0,498.0,143.0,496.0,147.0,496.0,155.0,493.0,163.0,489.0,171.0,481.0,179.0" stroke="black" stroke-width="2" fill="none" />
<polyline points="493.0,70.0,485.0,67.0,477.0,63.0,469.0,57.0,461.0,50.0,453.0,44.0,445.0,38.0,437.0,33.0,429.0,28.0,421.0,25.0,413.0,21.0,405.0,18.0,397.0,16.0,389.0,14.0,381.0,12.0,373.0,11.0,365.0,10.0,357.0,10.0,349.0,9.0,341.0,8.0,333.0,7.0,325.0,6.0,317.0,6.0,309.0,5.0,301.0,5.0,293.0,5.0,285.0,5.0,277.0,5.0,269.0,6.0,261.0,7.0,253.0,8.0,245.0,10.0,237.0,12.0,229.0,15.0,221.0,17.0,213.0,22.0,205.0,28.0,197.0,33.0,189.0,39.0,181.0,45.0,173.0,45.0,165.0,49.0,161.0,57.0,169.0,49.0" stroke="black" stroke-width="2" fill="none" />
<polyline points="162.0,56.0,170.0,49.0,167.0,47.0,159.0,55.0,160.0,63.0" stroke="black" stroke-width="2" fill="none" />
<polyline points="171.0,54.0,163.0,58.0,162.0,64.0,154.0,70.0,146.0,71.0,138.0,70.0,130.0,72.0,122.0,73.0,114.0,74.0,106.0,76.0,98.0,77.0,90.0,79.0,82.0,81.0,74.0,84.0,66.0,86.0,58.0,89.0,50.0,93.0,42.0,98.0,34.0,105.0,26.0,114.0,18.0,126.0,10.0,138.0,9.0,143.0" stroke="black" stroke-width="2" fill="none" />
<polyline points="12.0,140.0,20.0,130.0,28.0,130.0" stroke="black" stroke-width="2" fill="none" />
<polyline points="29.0,113.0,37.0,106.0,45.0,100.0,44.0,105.0,42.0,113.0,39.0,121.0,30.0,132.0,38.0,129.0,44.0,120.0,49.0,121.0,57.0,118.0,65.0,112.0,73.0,107.0,81.0,101.0,89.0,96.0,97.0,91.0" stroke="black" stroke-width="2" fill="none" />
<polyline points="98.0,89.0,86.0,97.0,74.0,105.0,62.0,113.0,53.0,121.0,47.0,128.0,55.0,136.0" stroke="black" stroke-width="2" fill="none" />
<polyline points="53.0,109.0,50.0,126.0,47.0,136.0,45.0,128.0,44.0,119.0,50.0,111.0,59.0,102.0,60.0,94.0,56.0,93.0" stroke="black" stroke-width="2" fill="none" />
<polyline points="55.0,93.0,56.0,101.0,52.0,112.0,49.0,120.0,38.0,128.0,31.0,126.0,39.0,122.0,47.0,114.0,50.0,109.0,62.0,111.0,70.0,105.0,78.0,100.0,86.0,95.0,94.0,89.0,102.0,85.0" stroke="black" stroke-width="2" fill="none" />
<polyline points="104.0,85.0,96.0,88.0,82.0,96.0,70.0,104.0,56.0,108.0,61.0,105.0" stroke="black" stroke-width="2" fill="none" />
<polyline points="57.0,110.0,62.0,102.0,63.0,94.0" stroke="black" stroke-width="2" fill="none" />
<polyline points="63.0,90.0,71.0,87.0,79.0,85.0,87.0,83.0,95.0,81.0,103.0,79.0,111.0,78.0,119.0,76.0,127.0,75.0,135.0,74.0,143.0,74.0,151.0,73.0,159.0,73.0,167.0,73.0,175.0,73.0,183.0,74.0,191.0,75.0,199.0,76.0,207.0,77.0,215.0,77.0,223.0,78.0,231.0,79.0,239.0,79.0,247.0,80.0,255.0,80.0,263.0,81.0,271.0,82.0,279.0,82.0,287.0,83.0,295.0,84.0,303.0,84.0" stroke="black" stroke-width="2" fill="none" />
<polyline points="324.0,79.0,327.0,71.0,331.0,63.0,334.0,55.0,337.0,47.0,340.0,39.0,342.0,31.0,338.0,23.0" stroke="black" stroke-width="2" fill="none" />
<polyline points="368.0,23.0,357.0,31.0,353.0,39.0,350.0,47.0,347.0,55.0,344.0,63.0,341.0,71.0,338.0,79.0,334.0,88.0,335.0,96.0,335.0,104.0,335.0,112.0,335.0,120.0,335.0,128.0,334.0,136.0,334.0,144.0,333.0,152.0,332.0,160.0,331.0,168.0,331.0,176.0,337.0,178.0,345.0,177.0,353.0,174.0,361.0,173.0,369.0,170.0,377.0,168.0,385.0,166.0,393.0,164.0,401.0,161.0,409.0,160.0,417.0,158.0,425.0,155.0" stroke="black" stroke-width="2" fill="none" />
<polyline points="445.0,57.0,441.0,49.0,429.0,41.0,413.0,33.0" stroke="black" stroke-width="2" fill="none" />
<polyline points="404.0,29.0,414.0,31.0,430.0,39.0,443.0,47.0,448.0,55.0,442.0,63.0,433.0,66.0,441.0,64.0" stroke="black" stroke-width="2" fill="none" />
<polyline points="445.0,58.0,437.0,63.0,429.0,65.0,421.0,66.0,413.0,71.0,409.0,67.0,409.0,59.0,408.0,51.0,406.0,43.0,404.0,35.0,398.0,27.0" stroke="black" stroke-width="2" fill="none" />
<polyline points="389.0,17.0,405.0,27.0,423.0,30.0,437.0,38.0,449.0,46.0,459.0,54.0,468.0,62.0,484.0,70.0" stroke="black" stroke-width="2" fill="none" />
<polyline points="503.0,109.0,505.0,101.0,502.0,93.0,499.0,85.0,494.0,77.0,489.0,69.0,471.0,61.0,462.0,53.0,453.0,45.0,441.0,37.0,428.0,29.0,411.0,21.0" stroke="black" stroke-width="2" fill="none" />
<polyline points="369.0,20.0,356.0,28.0,352.0,36.0,349.0,44.0,345.0,52.0,342.0,60.0,339.0,68.0,336.0,76.0,332.0,84.0,332.0,92.0,332.0,100.0,333.0,108.0,333.0,116.0,332.0,124.0,332.0,132.0,331.0,140.0,330.0,148.0,330.0,156.0,329.0,164.0,329.0,172.0,328.0,180.0,337.0,176.0,345.0,174.0,353.0,172.0,361.0,170.0,369.0,168.0,377.0,165.0,385.0,163.0,393.0,161.0,401.0,159.0,409.0,157.0,417.0,145.0,425.0,129.0" stroke="black" stroke-width="2" fill="none" />
<polyline points="229.0,119.0,221.0,130.0,216.0,133.0,222.0,128.0,225.0,120.0,223.0,112.0,228.0,103.0" stroke="black" stroke-width="2" fill="none" />
<polyline points="210.0,134.0,200.0,128.0,197.0,125.0,189.0,131.0,184.0,139.0,182.0,139.0,187.0,131.0,197.0,120.0,189.0,125.0" stroke="black" stroke-width="2" fill="none" />
<polyline points="190.0,132.0,192.0,135.0,184.0,142.0,186.0,143.0,194.0,140.0,194.0,132.0,205.0,126.0,213.0,132.0" stroke="black" stroke-width="2" fill="none" />
<polyline points="210.0,141.0,202.0,149.0,198.0,148.0,201.0,141.0,205.0,133.0,202.0,132.0" stroke="black" stroke-width="2" fill="none" />
<polyline points="221.0,20.0,208.0,28.0,197.0,36.0,186.0,44.0,174.0,54.0,178.0,51.0,186.0,45.0,194.0,39.0,202.0,33.0,210.0,27.0,218.0,22.0,226.0,20.0,234.0,20.0,242.0,20.0,250.0,19.0,258.0,19.0,266.0,20.0,274.0,20.0,282.0,20.0,290.0,21.0,298.0,22.0,306.0,22.0,314.0,23.0,322.0,24.0,330.0,25.0,338.0,25.0" stroke="black" stroke-width="2" fill="none" />
<polyline points="70.0,84.0,51.0,92.0,39.0,100.0,30.0,108.0,23.0,116.0,19.0,124.0,14.0,132.0,8.0,140.0,6.0,148.0,5.0,156.0,6.0,164.0,6.0,172.0,7.0,180.0,7.0,188.0,13.0,196.0" stroke="black" stroke-width="2" fill="none" />
<polyline points="25.0,200.0,13.0,192.0,13.0,181.0,17.0,173.0,26.0,171.0,21.0,163.0,14.0,155.0" stroke="black" stroke-width="2" fill="none" />
<polyline points="41.0,208.0,26.0,195.0,23.0,187.0,21.0,186.0,25.0,178.0,21.0,175.0,18.0,167.0,10.0,161.0,8.0,153.0,9.0,145.0,13.0,137.0,24.0,130.0,25.0,124.0,27.0,116.0,33.0,108.0,43.0,100.0" stroke="black" stroke-width="2" fill="none" />
</svg>