<svg xmlns="http://www.w3.org/2000/svg" height="476px" width="490px" version="1.1"><polyline points="337.0,14.0,348.0,22.0,353.0,30.0,357.0,38.0,359.0,46.0,360.0,54.0,359.0,62.0,359.0,70.0,359.0,78.0,357.0,86.0,355.0,94.0,353.0,102.0,350.0,110.0,348.0,118.0,344.0,126.0,342.0,134.0,339.0,142.0,337.0,150.0,334.0,158.0,332.0,166.0,327.0,174.0,325.0,182.0,321.0,190.0,322.0,198.0,334.0,211.0,329.0,219.0,323.0,227.0,321.0,235.0,320.0,243.0,319.0,251.0,322.0,259.0,326.0,267.0,333.0,275.0,343.0,283.0" stroke="black" stroke-width="2" fill="none" />
<polyline points="343.0,293.0,330.0,285.0" stroke="black" stroke-width="2" fill="none" />
<polyline points="326.0,285.0,334.0,288.0,342.0,292.0,350.0,294.0,358.0,296.0,366.0,297.0,374.0,296.0,382.0,294.0,390.0,291.0,398.0,288.0,406.0,289.0,414.0,284.0,422.0,273.0,430.0,278.0,438.0,283.0,446.0,288.0,454.0,297.0,462.0,307.0" stroke="black" stroke-width="2" fill="none" />
<polyline points="466.0,299.0,458.0,287.0,450.0,280.0,442.0,274.0,434.0,269.0,426.0,265.0,418.0,261.0" stroke="black" stroke-width="2" fill="none" />
<polyline points="417.0,258.0,425.0,261.0,433.0,264.0,441.0,268.0,449.0,273.0,457.0,279.0,465.0,288.0,473.0,300.0" stroke="black" stroke-width="2" fill="none" />
<polyline points="481.0,295.0,473.0,284.0,465.0,274.0,457.0,268.0,449.0,261.0,441.0,258.0,433.0,254.0,425.0,251.0,417.0,245.0" stroke="black" stroke-width="2" fill="none" />
<polyline points="424.0,237.0,416.0,245.0,418.0,241.0,426.0,238.0,434.0,236.0,442.0,231.0,450.0,226.0,458.0,221.0,466.0,212.0,474.0,202.0,482.0,190.0" stroke="black" stroke-width="2" fill="none" />
<polyline points="467.0,190.0,459.0,201.0,451.0,208.0,443.0,215.0,435.0,218.0,427.0,223.0,419.0,227.0,419.0,226.0,434.0,218.0,447.0,210.0,457.0,202.0,462.0,194.0,468.0,186.0,472.0,178.0,474.0,170.0,474.0,162.0,476.0,154.0,474.0,163.0" stroke="black" stroke-width="2" fill="none" />
<polyline points="477.0,154.0,479.0,157.0,479.0,165.0,479.0,173.0,476.0,181.0,472.0,189.0,466.0,197.0,459.0,205.0,452.0,213.0,442.0,221.0" stroke="black" stroke-width="2" fill="none" />
<polyline points="417.0,230.0,425.0,228.0,433.0,226.0,441.0,222.0,449.0,216.0,457.0,210.0,465.0,200.0,473.0,188.0" stroke="black" stroke-width="2" fill="none" />
<polyline points="467.0,152.0,475.0,142.0,483.0,144.0" stroke="black" stroke-width="2" fill="none" />
<polyline points="480.0,142.0,489.0,150.0,490.0,158.0,490.0,166.0,487.0,174.0,485.0,182.0,481.0,190.0,476.0,198.0,472.0,206.0,463.0,214.0,455.0,222.0,442.0,230.0" stroke="black" stroke-width="2" fill="none" />
<polyline points="432.0,254.0,448.0,262.0,459.0,270.0,467.0,278.0,472.0,286.0,479.0,294.0,482.0,302.0,485.0,310.0,487.0,318.0,489.0,326.0,490.0,334.0,487.0,342.0" stroke="black" stroke-width="2" fill="none" />
<polyline points="484.0,346.0,476.0,347.0,474.0,347.0,467.0,339.0,466.0,331.0,466.0,323.0,463.0,315.0,461.0,307.0,455.0,299.0,447.0,291.0,436.0,283.0,424.0,275.0" stroke="black" stroke-width="2" fill="none" />
<polyline points="421.0,273.0,416.0,281.0" stroke="black" stroke-width="2" fill="none" />
<polyline points="410.0,264.0,402.0,260.0,394.0,266.0" stroke="black" stroke-width="2" fill="none" />
<polyline points="393.0,272.0,401.0,278.0,409.0,277.0" stroke="black" stroke-width="2" fill="none" />
<polyline points="408.0,277.0,410.0,269.0,402.0,261.0" stroke="black" stroke-width="2" fill="none" />
<polyline points="400.0,260.0,393.0,268.0,394.0,276.0,390.0,290.0,371.0,297.0" stroke="black" stroke-width="2" fill="none" />
<polyline points="386.0,263.0,394.0,255.0,402.0,253.0" stroke="black" stroke-width="2" fill="none" />
<polyline points="416.0,258.0,427.0,266.0,441.0,274.0,452.0,282.0,458.0,290.0,464.0,298.0,469.0,306.0,471.0,314.0,474.0,322.0,476.0,330.0,477.0,338.0" stroke="black" stroke-width="2" fill="none" />
<polyline points="480.0,334.0,479.0,326.0,479.0,318.0,476.0,310.0,472.0,302.0,468.0,294.0,462.0,286.0,454.0,278.0,441.0,270.0,429.0,262.0" stroke="black" stroke-width="2" fill="none" />
<polyline points="405.0,226.0,410.0,218.0,410.0,213.0,402.0,211.0,394.0,216.0" stroke="black" stroke-width="2" fill="none" />
<polyline points="398.0,211.0,393.0,219.0,397.0,227.0,402.0,227.0,410.0,223.0" stroke="black" stroke-width="2" fill="none" />
<polyline points="403.0,237.0,395.0,235.0,387.0,226.0" stroke="black" stroke-width="2" fill="none" />
<polyline points="378.0,204.0,385.0,212.0,383.0,220.0,386.0,228.0,395.0,236.0,406.0,244.0,405.0,252.0,386.0,260.0,385.0,268.0,385.0,276.0,381.0,284.0" stroke="black" stroke-width="2" fill="none" />
<polyline points="324.0,304.0,332.0,321.0" stroke="black" stroke-width="2" fill="none" />
<polyline points="324.0,326.0,316.0,307.0" stroke="black" stroke-width="2" fill="none" />
<polyline points="320.0,294.0,325.0,285.0,321.0,293.0,322.0,301.0,326.0,309.0,329.0,317.0,333.0,325.0,334.0,333.0,338.0,341.0,340.0,349.0,344.0,357.0,347.0,365.0,349.0,373.0,352.0,381.0,353.0,389.0,355.0,397.0,358.0,405.0,360.0,413.0,360.0,421.0,360.0,429.0,360.0,437.0,359.0,445.0,358.0,453.0,353.0,461.0,347.0,469.0" stroke="black" stroke-width="2" fill="none" />
<polyline points="347.0,364.0,341.0,348.0" stroke="black" stroke-width="2" fill="none" />
<polyline points="380.0,285.0,372.0,286.0,364.0,288.0,356.0,285.0,348.0,284.0,340.0,280.0,332.0,273.0,324.0,260.0" stroke="black" stroke-width="2" fill="none" />
<polyline points="323.0,228.0,331.0,216.0,339.0,210.0,347.0,204.0,355.0,203.0,363.0,203.0,371.0,202.0,379.0,203.0" stroke="black" stroke-width="2" fill="none" />
<polyline points="378.0,194.0,393.0,202.0" stroke="black" stroke-width="2" fill="none" />
<polyline points="414.0,205.0,419.0,213.0" stroke="black" stroke-width="2" fill="none" />
<polyline points="458.0,187.0,450.0,198.0,442.0,204.0,434.0,210.0,426.0,213.0,418.0,210.0,410.0,203.0,402.0,199.0,394.0,202.0,386.0,197.0,378.0,195.0,370.0,192.0,362.0,193.0,354.0,193.0,346.0,195.0,338.0,199.0,330.0,205.0,322.0,195.0" stroke="black" stroke-width="2" fill="none" />
<polyline points="313.0,200.0,305.0,198.0,297.0,198.0,289.0,198.0,281.0,200.0,273.0,203.0,265.0,211.0,257.0,218.0,249.0,240.0" stroke="black" stroke-width="2" fill="none" />
<polyline points="251.0,257.0,259.0,271.0,267.0,281.0,275.0,285.0,283.0,291.0,291.0,293.0,299.0,293.0,307.0,291.0,315.0,287.0" stroke="black" stroke-width="2" fill="none" />
<polyline points="284.0,301.0,266.0,293.0" stroke="black" stroke-width="2" fill="none" />
<polyline points="262.0,292.0,256.0,300.0,251.0,308.0,248.0,316.0,244.0,324.0,241.0,332.0,240.0,340.0,239.0,348.0,240.0,356.0,239.0,364.0,240.0,372.0,243.0,380.0,245.0,388.0,249.0,396.0,253.0,404.0,259.0,412.0,264.0,420.0,271.0,428.0,277.0,436.0,286.0,444.0,295.0,452.0,307.0,460.0" stroke="black" stroke-width="2" fill="none" />
<polyline points="349.0,451.0,341.0,464.0,333.0,468.0,325.0,468.0,317.0,465.0,309.0,460.0,301.0,454.0,293.0,450.0,285.0,442.0,277.0,433.0,269.0,425.0,261.0,415.0,253.0,402.0,245.0,386.0" stroke="black" stroke-width="2" fill="none" />
<polyline points="235.0,383.0,241.0,398.0" stroke="black" stroke-width="2" fill="none" />
<polyline points="241.0,412.0,233.0,420.0,225.0,426.0,217.0,428.0,209.0,430.0,201.0,428.0,193.0,415.0" stroke="black" stroke-width="2" fill="none" />
<polyline points="187.0,426.0,195.0,435.0,203.0,440.0,211.0,441.0,219.0,437.0" stroke="black" stroke-width="2" fill="none" />
<polyline points="201.0,430.0,195.0,422.0,191.0,414.0,191.0,406.0,190.0,398.0,190.0,390.0,190.0,382.0,193.0,374.0,196.0,366.0,198.0,358.0,200.0,350.0,203.0,342.0,206.0,334.0,208.0,326.0,213.0,318.0,218.0,305.0,216.0,297.0,212.0,289.0,212.0,281.0,211.0,273.0,210.0,265.0,210.0,257.0,210.0,249.0,210.0,241.0,210.0,233.0,210.0,225.0,212.0,217.0,212.0,209.0,213.0,201.0,216.0,193.0,217.0,185.0,216.0,180.0,208.0,178.0,200.0,175.0,192.0,175.0,184.0,175.0" stroke="black" stroke-width="2" fill="none" />
<polyline points="185.0,173.0,182.0,181.0,182.0,189.0,179.0,197.0,178.0,205.0,177.0,213.0,178.0,221.0,177.0,229.0,175.0,237.0,174.0,245.0,174.0,253.0,174.0,261.0,177.0,269.0,178.0,277.0,177.0,285.0,180.0,293.0,180.0,301.0,183.0,309.0,183.0,311.0,191.0,316.0,199.0,313.0,207.0,312.0,215.0,309.0" stroke="black" stroke-width="2" fill="none" />
<polyline points="197.0,323.0,198.0,331.0,195.0,339.0,191.0,347.0,190.0,355.0,187.0,363.0,184.0,371.0,182.0,379.0,179.0,387.0,179.0,395.0,179.0,403.0,180.0,411.0,183.0,419.0,186.0,427.0,193.0,435.0" stroke="black" stroke-width="2" fill="none" />
<polyline points="246.0,418.0,239.0,426.0,226.0,431.0,234.0,429.0,242.0,423.0,250.0,418.0,258.0,426.0,266.0,432.0,274.0,443.0,282.0,451.0,290.0,459.0,298.0,465.0,306.0,469.0,314.0,474.0,322.0,476.0,330.0,476.0,338.0,476.0,346.0,471.0,354.0,460.0" stroke="black" stroke-width="2" fill="none" />
<polyline points="343.0,460.0,348.0,452.0,350.0,444.0,352.0,436.0,352.0,428.0,352.0,420.0,349.0,412.0,349.0,404.0,347.0,396.0,344.0,388.0,342.0,380.0,339.0,372.0,337.0,364.0,334.0,356.0,330.0,348.0,327.0,340.0,324.0,332.0,322.0,324.0,319.0,316.0,315.0,308.0,312.0,300.0,308.0,301.0,300.0,302.0,292.0,302.0,284.0,299.0,276.0,297.0,268.0,293.0,260.0,294.0,252.0,307.0,244.0,325.0" stroke="black" stroke-width="2" fill="none" />
<polyline points="241.0,312.0,233.0,312.0,225.0,316.0,217.0,319.0,209.0,324.0,195.0,324.0,187.0,324.0,179.0,326.0,171.0,326.0,163.0,327.0,155.0,326.0,147.0,324.0,139.0,323.0,131.0,323.0,123.0,322.0,115.0,319.0,107.0,317.0,99.0,312.0,91.0,308.0,83.0,302.0,75.0,297.0,67.0,290.0,59.0,279.0,51.0,264.0,43.0,260.0,35.0,256.0,27.0,249.0" stroke="black" stroke-width="2" fill="none" />
<polyline points="32.0,243.0,34.0,245.0,42.0,250.0" stroke="black" stroke-width="2" fill="none" />
<polyline points="46.0,248.0,46.0,240.0,41.0,241.0,33.0,243.0" stroke="black" stroke-width="2" fill="none" />
<polyline points="26.0,240.0,34.0,233.0,42.0,230.0,50.0,226.0,58.0,210.0,66.0,200.0,74.0,193.0,82.0,187.0,90.0,182.0,98.0,178.0,106.0,174.0,114.0,172.0,122.0,168.0,130.0,167.0,138.0,164.0,146.0,164.0,154.0,164.0,162.0,161.0,170.0,161.0,178.0,164.0,186.0,164.0,194.0,164.0" stroke="black" stroke-width="2" fill="none" />
<polyline points="210.0,164.0,218.0,172.0,226.0,174.0,234.0,177.0" stroke="black" stroke-width="2" fill="none" />
<polyline points="232.0,187.0,247.0,195.0,255.0,203.0,251.0,211.0,246.0,219.0,244.0,227.0,243.0,235.0,241.0,243.0,241.0,251.0,243.0,259.0,245.0,267.0,249.0,275.0,254.0,283.0,250.0,291.0,239.0,299.0" stroke="black" stroke-width="2" fill="none" />
<polyline points="238.0,311.0,238.0,319.0,234.0,327.0,233.0,335.0,230.0,343.0,230.0,351.0,230.0,359.0,230.0,367.0,233.0,375.0,234.0,383.0,238.0,391.0,240.0,399.0,243.0,407.0,237.0,415.0,229.0,423.0,222.0,437.0" stroke="black" stroke-width="2" fill="none" />
<polyline points="251.0,419.0,258.0,427.0,266.0,435.0,272.0,443.0,280.0,451.0,288.0,459.0,302.0,467.0,314.0,475.0" stroke="black" stroke-width="2" fill="none" />
<polyline points="253.0,278.0,245.0,264.0" stroke="black" stroke-width="2" fill="none" />
<polyline points="246.0,221.0,254.0,210.0" stroke="black" stroke-width="2" fill="none" />
<polyline points="251.0,197.0,243.0,193.0,235.0,188.0,227.0,188.0" stroke="black" stroke-width="2" fill="none" />
<polyline points="216.0,195.0,226.0,192.0,223.0,200.0,224.0,208.0,220.0,216.0,220.0,224.0,218.0,232.0,218.0,240.0,220.0,248.0,217.0,256.0,221.0,264.0,220.0,272.0,221.0,280.0,223.0,288.0,225.0,296.0,228.0,303.0,236.0,301.0,244.0,296.0,252.0,289.0" stroke="black" stroke-width="2" fill="none" />
<polyline points="174.0,313.0,172.0,305.0,170.0,297.0,169.0,289.0,169.0,281.0,167.0,273.0,167.0,265.0,167.0,257.0,167.0,249.0,167.0,241.0,167.0,233.0,167.0,225.0,167.0,217.0,169.0,209.0,169.0,201.0,172.0,193.0,172.0,185.0,175.0,177.0,173.0,172.0,165.0,173.0,157.0,173.0,149.0,172.0,141.0,175.0" stroke="black" stroke-width="2" fill="none" />
<polyline points="144.0,172.0,140.0,180.0,137.0,188.0,136.0,196.0,136.0,204.0,135.0,212.0,134.0,220.0,134.0,228.0,134.0,236.0,134.0,244.0,134.0,252.0,134.0,260.0,134.0,268.0,135.0,276.0,135.0,284.0,136.0,292.0,137.0,300.0,140.0,308.0,142.0,316.0,147.0,316.0,155.0,316.0,163.0,316.0,171.0,316.0" stroke="black" stroke-width="2" fill="none" />
<polyline points="129.0,311.0,129.0,303.0,127.0,295.0,127.0,287.0,126.0,279.0,124.0,271.0,124.0,263.0,124.0,255.0,124.0,247.0,124.0,239.0,124.0,231.0,124.0,223.0,126.0,215.0,126.0,207.0,126.0,199.0,129.0,191.0,130.0,183.0,127.0,178.0,119.0,179.0,111.0,182.0,103.0,185.0,95.0,193.0" stroke="black" stroke-width="2" fill="none" />
<polyline points="86.0,198.0,83.0,206.0,84.0,214.0,81.0,222.0,81.0,230.0,81.0,238.0,81.0,246.0,81.0,254.0,81.0,262.0,81.0,270.0,83.0,278.0,83.0,286.0" stroke="black" stroke-width="2" fill="none" />
<polyline points="94.0,296.0,102.0,303.0,110.0,307.0,118.0,311.0,126.0,312.0" stroke="black" stroke-width="2" fill="none" />
<polyline points="85.0,291.0,77.0,286.0,69.0,279.0,61.0,266.0" stroke="black" stroke-width="2" fill="none" />
<polyline points="57.0,231.0,65.0,215.0,73.0,205.0,81.0,199.0" stroke="black" stroke-width="2" fill="none" />
<polyline points="83.0,197.0,71.0,205.0,66.0,213.0,61.0,221.0,58.0,229.0,56.0,237.0,56.0,245.0,56.0,253.0,59.0,261.0,61.0,269.0,66.0,277.0,74.0,285.0,81.0,293.0" stroke="black" stroke-width="2" fill="none" />
<polyline points="109.0,308.0,96.0,300.0,93.0,292.0,92.0,284.0,91.0,276.0,92.0,268.0,91.0,260.0,89.0,252.0,89.0,244.0,91.0,236.0,91.0,228.0,92.0,220.0,92.0,212.0,94.0,204.0,94.0,196.0,97.0,188.0,112.0,180.0" stroke="black" stroke-width="2" fill="none" />
<polyline points="109.0,172.0,92.0,180.0,79.0,188.0,68.0,196.0,62.0,204.0,56.0,212.0,52.0,220.0,44.0,228.0,27.0,236.0,25.0,244.0,27.0,252.0,40.0,260.0,51.0,268.0,55.0,276.0,60.0,284.0,68.0,292.0,78.0,300.0,89.0,308.0,104.0,316.0" stroke="black" stroke-width="2" fill="none" />
<polyline points="246.0,168.0,254.0,183.0,262.0,195.0,270.0,195.0,278.0,192.0,286.0,190.0,294.0,188.0,302.0,187.0,310.0,190.0,324.0,187.0" stroke="black" stroke-width="2" fill="none" />
<polyline points="305.0,197.0,316.0,205.0,319.0,213.0,316.0,221.0,314.0,229.0,311.0,237.0,311.0,245.0,312.0,253.0,313.0,261.0,317.0,269.0,320.0,277.0,315.0,285.0" stroke="black" stroke-width="2" fill="none" />
<polyline points="280.0,289.0,265.0,281.0,259.0,273.0,254.0,265.0,250.0,257.0,251.0,249.0,249.0,241.0,251.0,233.0,253.0,225.0,258.0,217.0,266.0,209.0,266.0,197.0,281.0,189.0" stroke="black" stroke-width="2" fill="none" />
<polyline points="245.0,104.0,251.0,90.0,259.0,77.0,267.0,69.0,275.0,56.0,283.0,48.0,291.0,43.0,299.0,35.0,307.0,29.0,315.0,26.0,323.0,22.0,331.0,21.0,339.0,25.0,347.0,32.0" stroke="black" stroke-width="2" fill="none" />
<polyline points="351.0,25.0,343.0,16.0,335.0,13.0,327.0,12.0,319.0,15.0,311.0,17.0,303.0,21.0,295.0,27.0,287.0,34.0,279.0,40.0,271.0,48.0,263.0,58.0,255.0,69.0,247.0,69.0,239.0,63.0,231.0,58.0,223.0,53.0,215.0,51.0,207.0,49.0,199.0,51.0,191.0,57.0,183.0,71.0" stroke="black" stroke-width="2" fill="none" />
<polyline points="191.0,76.0,199.0,61.0,207.0,59.0,215.0,59.0,223.0,63.0,231.0,66.0,239.0,74.0,247.0,81.0" stroke="black" stroke-width="2" fill="none" />
<polyline points="242.0,89.0,234.0,106.0" stroke="black" stroke-width="2" fill="none" />
<polyline points="216.0,60.0,231.0,68.0,239.0,76.0,244.0,84.0,240.0,92.0,236.0,100.0,233.0,108.0,233.0,116.0,230.0,124.0,230.0,132.0,230.0,140.0,230.0,148.0,233.0,156.0,235.0,164.0,238.0,172.0,238.0,180.0" stroke="black" stroke-width="2" fill="none" />
<polyline points="216.0,171.0,208.0,163.0,206.0,155.0,203.0,147.0,201.0,139.0,197.0,131.0,195.0,123.0,193.0,115.0,191.0,107.0,190.0,99.0,190.0,91.0,190.0,83.0,191.0,75.0,195.0,67.0,203.0,59.0" stroke="black" stroke-width="2" fill="none" />
<polyline points="200.0,50.0,189.0,58.0,185.0,66.0,182.0,74.0,179.0,82.0,179.0,90.0,179.0,98.0,180.0,106.0,182.0,114.0,185.0,122.0,187.0,130.0,190.0,138.0,193.0,146.0,196.0,154.0,200.0,162.0" stroke="black" stroke-width="2" fill="none" />
<polyline points="244.0,68.0,234.0,60.0,220.0,52.0" stroke="black" stroke-width="2" fill="none" />
<polyline points="251.0,71.0,258.0,63.0,266.0,55.0,271.0,47.0,279.0,39.0,289.0,31.0,300.0,23.0,314.0,15.0" stroke="black" stroke-width="2" fill="none" />
<polyline points="317.0,23.0,302.0,31.0,294.0,39.0,283.0,47.0,275.0,55.0,270.0,63.0,262.0,71.0,256.0,79.0,251.0,87.0,248.0,95.0,245.0,103.0,242.0,111.0,241.0,119.0,239.0,127.0,239.0,135.0,241.0,143.0,240.0,151.0,244.0,159.0,244.0,167.0,248.0,175.0,253.0,183.0,258.0,191.0" stroke="black" stroke-width="2" fill="none" />
<polyline points="439.0,205.0,450.0,197.0,455.0,189.0,461.0,181.0,463.0,173.0,466.0,165.0,466.0,157.0,467.0,149.0,476.0,141.0" stroke="black" stroke-width="2" fill="none" />
<polyline points="315.0,184.0,317.0,176.0,320.0,168.0,324.0,160.0,326.0,152.0,329.0,144.0,333.0,136.0,335.0,128.0,338.0,120.0,340.0,112.0,343.0,104.0,347.0,96.0,348.0,88.0,350.0,80.0,352.0,72.0,352.0,64.0,352.0,56.0,349.0,48.0,348.0,40.0,345.0,32.0,337.0,24.0" stroke="black" stroke-width="2" fill="none" />
</svg>